<svg id="0b77d0e3-1744-48a9-83e2-8ff8efe0dc24" data-name="Pagina Movil" xmlns="http://www.w3.org/2000/svg" viewBox="0 0 181 181">
  <title>nosotros</title>
  <g id="7d164a7d-fb7d-4f0d-bde2-131594c2145c" data-name="La agencia">
    <g>
      <g id="01c6c255-07df-46c8-b2bd-dec1291c0fa8" data-name="#2c3e50ff">
        <path d="M155.5,552.4h10.6a90.8,90.8,0,0,1,85.2,85.2v10.6a90.8,90.8,0,0,1-85.2,85.2H155.4a90.8,90.8,0,0,1-85.2-85.2V637.6a90.8,90.8,0,0,1,85.2-85.2m2.6,18.8c-5.9.2-12,2.6-15.5,7.5s-4.5,12-4.2,18.4c-2.1.1-5.1-.3-6.2,2s1.7,3,3.2,3.7a36.8,36.8,0,0,0-1.5,8.9,28.4,28.4,0,0,0,3.5,13,26.9,26.9,0,0,0,42.7,5.6,27.5,27.5,0,0,0,7.7-18.5l-0.2-.2a26.9,26.9,0,0,0-1.3-8.9c1.8-.6,4.4-2.9,2.5-4.8s-3.6-.9-5.5-0.9c0.3-6.5-.3-13.5-4.5-18.8s-9.5-6.8-15.2-7.1l-2.6-1-2.9,1m-13.4,71.2c-3.4.8-5.9,3.5-7.6,6.4a46.2,46.2,0,0,0-5.1,15.9c-1.8,11.4-3.1,22.9-4.2,34.3-0.2,7.8,6,15.4,14.1,15.4v-0.3c6.4,0.5,12.8.2,19.2,0.1h14.6c1.3-.1,3,0.3,4-0.9l0.2,1c8-.1,14.3-7.7,14-15.4-1.1-13.1-2.3-26.3-4.2-39.3-0.9-5.6-2.4-11.7-7-15.4s-8.4-2.2-12.6-2.1-6.8-.2-10.2,0a59.8,59.8,0,0,0-7.5,0A34.4,34.4,0,0,0,144.7,642.5Z" transform="translate(-70.3 -552.4)" style="fill: #2c3e50"/>
      </g>
      <g id="3309c0c4-6fed-44af-acad-7d519cf81191" data-name="#efd050ff">
        <path d="M158,571.3l2.9-1c-0.3,9.3,0,18.7-.1,28h-5l-1.1-.9a90.3,90.3,0,0,1,.7-18A27.6,27.6,0,0,1,158,571.3Z" transform="translate(-70.3 -552.4)" style="fill: #efd050"/>
      </g>
      <g id="c2a56b11-daaf-4980-9d8c-957cb92d6a7f" data-name="#edc92cff">
        <path d="M160.9,570.2l2.6,1c4.2,8.3,3.3,17.8,3.5,26.8l-6.2.2C160.9,588.9,160.6,579.6,160.9,570.2Z" transform="translate(-70.3 -552.4)" style="fill: #edc92c"/>
        <path d="M142.6,578.8c3.5-4.9,9.6-7.3,15.5-7.5a27.6,27.6,0,0,0-2.6,8.1,90.3,90.3,0,0,0-.7,18l1.1,0.9c-5.8-.4-11.6-0.8-17.4-1.1C138.1,590.8,138.7,584,142.6,578.8Z" transform="translate(-70.3 -552.4)" style="fill: #edc92c"/>
      </g>
      <g id="d38bb85f-84c7-4401-a7f1-12eb8c59869a" data-name="#e0b500ff">
        <path d="M163.5,571.3c5.7,0.3,11.6,2.4,15.2,7.1s4.8,12.3,4.5,18.8c-5.4.1-10.8,0.7-16.2,0.9C166.9,589.1,167.7,579.5,163.5,571.3Z" transform="translate(-70.3 -552.4)" style="fill: #e0b500"/>
      </g>
      <g id="4f39d679-1145-4796-967c-619f05554fb9" data-name="#dbb626ff">
        <path d="M132.1,599.2c1.1-2.3,4.1-1.9,6.2-2,5.8,0.3,11.6.7,17.4,1.1h5l6.2-.2c5.4-.2,10.8-0.8,16.2-0.9,1.8,0,3.9-.1,5.5.9s-0.7,4.2-2.5,4.8a31.9,31.9,0,0,1-6.7,1.8c-7.7,1.3-15.5,1.2-23.3,1.3s-14.3-.5-20.9-3C133.8,602.2,132.1,601,132.1,599.2Z" transform="translate(-70.3 -552.4)" style="fill: #dbb626"/>
      </g>
      <g id="08a0373f-e941-4c9f-a383-2d2cbfb6e1be" data-name="#492a15ff">
        <path d="M135.3,602.8c6.7,2.5,13.9,2.7,20.9,3a66,66,0,0,1-22.4,5.8A36.8,36.8,0,0,1,135.3,602.8Z" transform="translate(-70.3 -552.4)" style="fill: #492a15"/>
        <path d="M179.6,604.6a31.9,31.9,0,0,0,6.7-1.8,26.9,26.9,0,0,1,1.3,8.9C184.8,609.4,182.2,607,179.6,604.6Z" transform="translate(-70.3 -552.4)" style="fill: #492a15"/>
        <path d="M146.2,627.1c-1.8-2.1-.8-6.7,2.6-5.4l0.6,2.1a2.4,2.4,0,0,0-2.1-.8c-0.7,1.8,1.3,3.1,2.9,3.3s2.3-1.6,3.3-2.6,5.5-2.9,7.4-.5c1.5-1.9,4.4-1.8,6.2-.5s1.8,2,2.7,2.9,4.3,0.3,4.7-1.6-1.6-.8-2.3-0.1l0.6-2.1a2.5,2.5,0,0,1,3.4,2.1c0.3,2.6-1.7,4.9-4,5.8-3.9,1.4-9,.8-11.4-2.9C157.7,631.4,149.7,631.5,146.2,627.1Z" transform="translate(-70.3 -552.4)" style="fill: #492a15"/>
      </g>
      <g id="16967111-b948-43ad-a9fb-9b9fa03a69d2" data-name="#e9c29cff">
        <path d="M156.3,605.9c7.8-.1,15.6.1,23.3-1.3,2.6,2.4,5.2,4.8,7.9,7.1l0.2,0.2a27.5,27.5,0,0,1-7.7,18.5,26.9,26.9,0,0,1-42.7-5.6,28.4,28.4,0,0,1-3.5-13,66,66,0,0,0,22.4-5.8M151,612c-2.9,1.4-2.6,6.5.6,7.4s6.1-2.6,4.6-5.4a3.7,3.7,0,0,0-5.2-2m15.7,0.2c-2.7,1.5-2.3,6,.6,7.2s5.9-1.9,5-4.7a3.7,3.7,0,0,0-5.6-2.5m-20.5,15c3.5,4.4,11.4,4.2,14.6-.5,2.4,3.7,7.5,4.3,11.4,2.9,2.3-.9,4.4-3.2,4-5.8a2.5,2.5,0,0,0-3.4-2.1l-0.6,2.1c0.7-.7,2.4-1.8,2.3.1s-3.2,3.1-4.7,1.6-1.6-2.2-2.7-2.9-4.7-1.4-6.2.5c-1.9-2.3-5.6-1.6-7.4.5s-1.7,2.6-3.3,2.6-3.5-1.4-2.9-3.3a2.4,2.4,0,0,1,2.1.8l-0.6-2.1C145.4,620.4,144.4,625.1,146.2,627.1Z" transform="translate(-70.3 -552.4)" style="fill: #e9c29c"/>
        <path d="M127.7,699.1h17q-1.4,7.6-2.9,15.2v0.3C133.7,714.6,127.5,706.9,127.7,699.1Z" transform="translate(-70.3 -552.4)" style="fill: #e9c29c"/>
        <path d="M177.7,699.1h16.2c0.2,7.8-6,15.4-14,15.4l-0.2-1C178.9,708.8,178.3,704,177.7,699.1Z" transform="translate(-70.3 -552.4)" style="fill: #e9c29c"/>
      </g>
      <g id="863878de-e940-49bf-bddc-4e2e506c6240" data-name="#343433ff">
        <path d="M151,612a3.7,3.7,0,0,1,5.2,2c1.5,2.8-1.5,6.6-4.6,5.4s-3.5-5.9-.6-7.4m2.1,0.6c-1.6.9-.7,3.8,1.2,3.2S155.2,611.7,153.1,612.6Z" transform="translate(-70.3 -552.4)" style="fill: #343433"/>
        <path d="M166.7,612.2a3.7,3.7,0,0,1,5.6,2.5c0.9,2.8-2.2,6-5,4.7s-3.3-5.6-.6-7.2m2,0.6c-1.5,1.3.2,4,1.9,2.8S170.5,611.5,168.7,612.8Z" transform="translate(-70.3 -552.4)" style="fill: #343433"/>
      </g>
      <g id="82ba6e7a-e9bf-48cc-a688-3704c6cf67f0" data-name="#f6f6f6ff">
        <path d="M153.1,612.6c2.1-.9,3.5,2.6,1.2,3.2S151.5,613.4,153.1,612.6Z" transform="translate(-70.3 -552.4)" style="fill: #f6f6f6"/>
      </g>
      <g id="73312c83-e027-41ce-b733-6ef27e10bf02" data-name="#ffffffff">
        <path d="M168.7,612.8c1.8-1.3,3.8,1.6,1.9,2.8S167.3,614,168.7,612.8Z" transform="translate(-70.3 -552.4)" style="fill: #fff"/>
        <path d="M157.9,650.4a5,5,0,0,0,5.7-.2l0.3,2.8c-2.4,1.7-4.6,3.8-7,5.5Z" transform="translate(-70.3 -552.4)" style="fill: #fff"/>
        <path d="M156.4,662.2l7.9-6.4,0.4,3.4v1.3l-9,7.3C155.9,666,156.2,664.1,156.4,662.2Z" transform="translate(-70.3 -552.4)" style="fill: #fff"/>
        <path d="M165.3,663.3l0.6,4.7c-3.4,2.4-6.4,5.4-9.8,7.8l-1.4.4c0.2-1.7.5-3.4,0.7-5C158.9,668.9,161.9,665.9,165.3,663.3Z" transform="translate(-70.3 -552.4)" style="fill: #fff"/>
        <path d="M154.1,680.7c4.1-3.2,8.1-6.5,12.1-9.8l0.6,4.7c-4.5,3.5-8.9,7.3-13.4,10.9Z" transform="translate(-70.3 -552.4)" style="fill: #fff"/>
        <path d="M153,689.8c4.9-3.7,9.4-7.7,14.2-11.4l0.3,2,0.3,2.3c-4.9,4.5-10.3,8.6-15.5,12.8Z" transform="translate(-70.3 -552.4)" style="fill: #fff"/>
        <path d="M154.6,696.9l13.5-11,0.6,4.6c-4.6,3.6-9,7.4-13.6,11l-2.7-2.4A15.3,15.3,0,0,1,154.6,696.9Z" transform="translate(-70.3 -552.4)" style="fill: #fff"/>
        <path d="M157,703.2c4-3.3,8-6.6,12.1-9.9,0.2,1.6.4,3.3,0.7,4.9-2.9,2.9-6.2,5.3-9.2,8Z" transform="translate(-70.3 -552.4)" style="fill: #fff"/>
      </g>
      <g id="5cc29e21-5ff5-48c9-bcf9-1a03de2dec99" data-name="#29636dff">
        <path d="M144.7,642.5a34.4,34.4,0,0,1,7.7-.2q-3.8,28.4-7.6,56.9h-17c1.1-11.5,2.4-23,4.2-34.3a46.2,46.2,0,0,1,5.1-15.9C138.8,646,141.3,643.4,144.7,642.5Z" transform="translate(-70.3 -552.4)" style="fill: #29636d"/>
        <path d="M170,642.3c4.2-.1,9.1-0.7,12.6,2.1s6.1,9.8,7,15.4c1.9,13,3.1,26.2,4.2,39.3H177.7C175.1,680.2,172.7,661.2,170,642.3Z" transform="translate(-70.3 -552.4)" style="fill: #29636d"/>
      </g>
      <g id="82ea3d6a-c542-4092-bfe3-4aa048258b00" data-name="#0e2c2dff">
        <path d="M152.4,642.3a59.8,59.8,0,0,1,7.5,0l-0.7.6a4.8,4.8,0,0,0-1.1,7.6l-1,8.1-0.5,3.7c-0.3,1.9-.5,3.8-0.7,5.7l-0.4,3.3c-0.2,1.7-.5,3.4-0.7,5s-0.3,3-.5,4.5l-0.7,5.7-0.4,3.5-0.8,5.7c0,1.2-.7,2.5.2,3.5l2.7,2.4,1.9,1.8,3.5,3.1c0.8,2.6.6,5.4,0.5,8.1-6.4.1-12.8,0.3-19.2-.1q1.5-7.6,2.9-15.2Q148.6,670.7,152.4,642.3Z" transform="translate(-70.3 -552.4)" style="fill: #0e2c2d"/>
      </g>
      <g id="d188d56e-cd02-4e56-b98c-6210f8c6b2ff" data-name="#17474cff">
        <path d="M159.8,642.3c3.4-.2,6.8,0,10.2,0,2.7,18.9,5.1,37.9,7.7,56.8,0.6,4.8,1.2,9.6,2,14.4-1,1.2-2.7.8-4,.9H161c0.1-2.7.3-5.5-.5-8.1,3-2.7,6.3-5.1,9.2-8-0.3-1.6-.5-3.3-0.7-4.9l-0.4-2.9-0.6-4.6-0.7-5.5-0.3-2-0.4-2.9-0.6-4.7-0.3-2.8-0.6-4.7-0.5-4.1-0.4-3.4-0.4-2.9-0.3-2.8c1.5-1.8,1.9-4.8-.1-6.5s-2.9-.9-4.4-0.9Z" transform="translate(-70.3 -552.4)" style="fill: #17474c"/>
      </g>
      <g id="73d177fc-6de0-4afa-a0d5-1d00c2ee61af" data-name="#6fc5bcff">
        <path d="M157.9,650.4a4.8,4.8,0,0,1,1.1-7.6c1.5,0.1,3.3-.3,4.4.9s1.7,4.7.1,6.5A5,5,0,0,1,157.9,650.4Z" transform="translate(-70.3 -552.4)" style="fill: #6fc5bc"/>
      </g>
      <g id="c4cbe0aa-4392-45c9-8ce4-425f340abfa3" data-name="#8dd3d5ff">
        <path d="M156.9,658.5c2.4-1.7,4.6-3.8,7-5.5l0.4,2.9-7.9,6.4Z" transform="translate(-70.3 -552.4)" style="fill: #8dd3d5"/>
        <path d="M164.8,659.2l0.5,4.1c-3.3,2.6-6.4,5.5-9.9,7.8l0.4-3.3,9-7.3v-1.3Z" transform="translate(-70.3 -552.4)" style="fill: #8dd3d5"/>
        <path d="M156,675.8c3.4-2.4,6.4-5.4,9.8-7.8l0.3,2.8c-4,3.3-8,6.6-12.1,9.8,0.2-1.5.3-3,.5-4.5Z" transform="translate(-70.3 -552.4)" style="fill: #8dd3d5"/>
        <path d="M153.4,686.3c4.5-3.6,8.9-7.3,13.4-10.9l0.4,2.9c-4.8,3.7-9.4,7.8-14.2,11.4Z" transform="translate(-70.3 -552.4)" style="fill: #8dd3d5"/>
        <path d="M167.4,680.4l0.7,5.5-13.5,11a15.3,15.3,0,0,0-2.2,2.2c-0.8-1-.2-2.4-0.2-3.5,5.2-4.3,10.6-8.3,15.5-12.8Z" transform="translate(-70.3 -552.4)" style="fill: #8dd3d5"/>
        <path d="M155.1,701.5c4.5-3.6,9-7.4,13.6-11l0.4,2.9c-4.1,3.2-8,6.6-12.1,9.9Z" transform="translate(-70.3 -552.4)" style="fill: #8dd3d5"/>
      </g>
    </g>
  </g>
</svg>
