<svg id="adb75f7e-16ff-4694-a6b2-cf4cc9e38869" data-name="Pagina Movil" xmlns="http://www.w3.org/2000/svg" viewBox="0 0 290.4 212.7">
  <title>proyecto4</title>
  <g id="a4dc0e5d-0b0b-4759-86c3-74b82e2d1f7c" data-name="proyecto 4">
    <path d="M159.7,2902.7H14.4q0.1-106.3,0-212.7H304.9q-0.1,106.3,0,212.7H159.7Z" transform="translate(-14.4 -2690.1)" style="fill: #1037b4"/>
    <path d="M242.3,2795.6a86.5,86.5,0,0,1-5,29.5,84.3,84.3,0,0,1-14.4,25c-9.9,12.3-22.7,20.4-37.5,25.6a76.5,76.5,0,0,1-48.8,1c-15-4.5-28.1-12.5-38.5-24.5a83.9,83.9,0,0,1-15-24.2,84.7,84.7,0,0,1,5.6-74.7c5.9-10.3,13.9-18.5,23.4-25.4,17.2-12.6,36.5-17,57.5-14.7a75.8,75.8,0,0,1,34.9,12.7c9.9,6.7,18.5,14.9,24.8,25.2a84,84,0,0,1,10.5,24.5A81.5,81.5,0,0,1,242.3,2795.6Z" transform="translate(-14.4 -2690.1)" style="fill: #eec74a"/>
    <path d="M139.3,2734h52.1a6.3,6.3,0,0,1,6.3,4.1l4.7,11a18.6,18.6,0,0,1,1.5,7.1c0.1,8.2,0,16.4,0,24.7a8.7,8.7,0,0,1-.1,1,1.2,1.2,0,0,1-.9-1.3,19.9,19.9,0,0,1-.1-2.3c0-6.6,0-13.1,0-19.7,0-3.3-1.1-4.4-4.4-4.4H158.9c-1-.1-1.5-1-2.1-1.6-4-4.1-8.1-8.2-12.2-12.2-1.5-1.5-3.2-2.9-4.7-4.4S138.9,2734.9,139.3,2734Z" transform="translate(-14.4 -2690.1)" style="fill: #797a7a"/>
    <path d="M139.3,2734l16.1,15.9a22.3,22.3,0,0,1,2.9,3.4c-0.5.9-1.4,0.8-2.1,0.8H125c-3.2,0-6.4-.4-9.4,1.3a0.6,0.6,0,0,1-.2-0.8,19.2,19.2,0,0,1,1.5-5.7l4.8-10.9a6.2,6.2,0,0,1,6.1-4h11.6Z" transform="translate(-14.4 -2690.1)" style="fill: #626262"/>
    <path d="M115.5,2755.3a4.8,4.8,0,0,1,4.3-2h78.8c3.7,0,4.9,1.2,4.9,4.9q0,10.7,0,21.4a4.8,4.8,0,0,0,.2,2.1,8,8,0,0,0-.2,2.6q0,32.3,0,64.6c0,3.4-1.4,4.8-4.8,4.8h-1.9a5.2,5.2,0,0,1-2.2.4H186a5.3,5.3,0,0,1-2.2-.4H135.2a0.4,0.4,0,0,1,0-.5c0.9-.8,1.9-0.5,2.9-0.5h32.6c1.1,0,2.2.2,2.7-1.1a4.8,4.8,0,0,1,3-.5h22.4a2.1,2.1,0,0,0,1.9-1.9,14.3,14.3,0,0,0,.1-2.4q0-43.2,0-86.4c0-3.8-.3-4.1-4.1-4.1H122c-3.9,0-4.2.2-4.2,4.2,0,6.9,0,13.9,0,20.8a8.6,8.6,0,0,1-.2,2.9c-0.7.9-1.2,0.5-1.7-.2a9.8,9.8,0,0,1-.7-1.4v-26.2C115.4,2755.9,115.1,2755.5,115.5,2755.3Z" transform="translate(-14.4 -2690.1)" style="fill: #939595"/>
    <path d="M173.5,2851.8c0.2,0.5.9,0.8,0.6,1.4s-0.9.2-1.4,0.2H135.1a1.8,1.8,0,0,1-1.4.7q-5.1.2-10.3,0a4.5,4.5,0,0,1-1.2-.4h-2.9a3.9,3.9,0,0,1-4.2-3.9c0-.3,0-0.5,0-0.8q0-32.7,0-65.4c0-.4,0-0.8,0-1.1l1.9,1.9,0.4,0.5a18.2,18.2,0,0,1,.4,4.3q0,28.8,0,57.5c0,4,.4,4.3,4.3,4.3h47.2a10.6,10.6,0,0,1,3.7.4Z" transform="translate(-14.4 -2690.1)" style="fill: #787979"/>
    <path d="M122.2,2853.7a2.4,2.4,0,0,1,1.8-.3h11.1v0.3c0,1.4-.1,2.9,0,4.3s-0.2,1.2-1.1,1.2H123.3a0.9,0.9,0,0,1-1.1-1.1C122.3,2856.6,122.2,2855.2,122.2,2853.7Z" transform="translate(-14.4 -2690.1)" style="fill: #4b4b4b"/>
    <path d="M183.8,2853.7a1.3,1.3,0,0,1,1-.3h10.9a1.3,1.3,0,0,1,1,.3c0,1.4-.1,2.8,0,4.2s-0.2,1.3-1.2,1.3H185.1c-1,0-1.3-.4-1.2-1.3S183.8,2855.1,183.8,2853.7Z" transform="translate(-14.4 -2690.1)" style="fill: #5d5d5d"/>
    <path d="M115.5,2755.3l-0.3.9a2.4,2.4,0,0,1,.2-1.6v0.7Z" transform="translate(-14.4 -2690.1)" style="fill: #7e7a6a"/>
    <path d="M117.1,2784.6v-0.3q0-13.1,0-26.1c0-2.4.5-2.9,2.9-2.9h78.7c2.4,0,2.9.5,2.9,3q0,45.2,0,90.3c0,2.6-.7,3.2-3.3,3.2H173.2c-1.9-1.1-3-2.8-4.3-4.4a1.2,1.2,0,0,1,0-1.6,4.2,4.2,0,0,1,2.8-.5h19.5a12.2,12.2,0,0,0,2.3-.1,3.1,3.1,0,0,0,2.7-2.7,13.1,13.1,0,0,0,.1-2.4q0-15.5,0-30.9a13.3,13.3,0,0,0,0-3.7c-0.2-1.1,0-2.2-.1-3.3a3.8,3.8,0,0,0,.3-1.4c-0.4-11.4-.1-22.9-0.2-34.3,0-4.7-.7-5.4-5.4-5.4H127.7c-4.6,0-5.4.7-5.4,5.3,0,6.7,0,13.3,0,20a10.2,10.2,0,0,1-.2,2.9c-0.8,1.1-1.6.6-2.2-.1A10.8,10.8,0,0,1,117.1,2784.6Z" transform="translate(-14.4 -2690.1)" style="fill: #a2a5a5"/>
    <path d="M117.1,2784.6c1.7,1.4,2.8,3.5,4.5,4.9a0.9,0.9,0,0,1,.6,1c0.3,4.6-.2,9.2,0,13.8,0.4,9.8.1,19.5,0.2,29.3,0,2.2,0,4.4,0,6.6,0,4.1.9,5,4.9,5h36.3a32.1,32.1,0,0,1,4.5.2,0.9,0.9,0,0,1,1,.9c1.3,1.9,3.3,3.3,4.2,5.5H119.7c-2,0-2.7-.8-2.7-3.2q0-21.5,0-43Q117.1,2795.1,117.1,2784.6Z" transform="translate(-14.4 -2690.1)" style="fill: #838585"/>
    <path d="M196.7,2802.1a3.8,3.8,0,0,1,0,2.9,1.8,1.8,0,0,1-1.4,2,3.3,3.3,0,0,1-1.4.3c-4.3,0-8.6.2-12.9-.1h-1.5a32.8,32.8,0,0,1-4.6.1h-1.3c-1.2-.1-2.5.1-3.7,0.1a2,2,0,0,0-1.8,1.1,9.5,9.5,0,0,1-3.8,3.8,1.8,1.8,0,0,0-1,1.7c0,0.9-.2,1.8-0.2,2.7s0,0.9,0,1.3a20.7,20.7,0,0,1,0,4.6c0,0.5,0,1,0,1.5a121.2,121.2,0,0,1-.1,14c-0.8,1.1-1.5.5-2.2-.2s-3.4-4.1-5.1-6.2a1.4,1.4,0,0,1-.1-0.6,52.4,52.4,0,0,1,0-7c0-.5,0-1,0-1.5s-0.1-3.1-.2-4.6a3.2,3.2,0,0,0,.1-1.3,20.6,20.6,0,0,0-.2-3,2.2,2.2,0,0,0-1.1-1.7,12.3,12.3,0,0,1-3.5-3.7,1.8,1.8,0,0,0-1.7-1c-1.2,0-2.4-.2-3.5-0.1h-1.3a29.5,29.5,0,0,1-4.5-.1h-1.4a18.1,18.1,0,0,1-2.5-.1h-0.5a27.1,27.1,0,0,1-4.1-4.4c-0.6-.8-1.2-1.6-0.3-2.5a14,14,0,0,1,3.5-.1h14.5a2,2,0,0,0,2-1,11.9,11.9,0,0,1,3.8-3.9,1.4,1.4,0,0,0,.8-1.6c0-1.7,0-3.5.1-5.2s0-1-.1-1.5a45.8,45.8,0,0,1,.1-4.8,25.1,25.1,0,0,1,0-4.2c-0.1-3.5-.5-7,0.2-10.4a6.1,6.1,0,0,1,.9-0.9c1.9-1.7,3-1.7,4.8,0l0.9,0.9a7.8,7.8,0,0,1,.4,3.5c0,2.3.1,4.6-.1,6.9a26.6,26.6,0,0,1,0,4.2,24.6,24.6,0,0,1,0,4.8c0,0.5,0,1,0,1.5s0,3.5.3,5.2a1.4,1.4,0,0,0,.9,1.5,9.7,9.7,0,0,1,3.9,3.8,2.4,2.4,0,0,0,2.4,1.2h23.3C195.7,2800,196.4,2800.5,196.7,2802.1Z" transform="translate(-14.4 -2690.1)" style="fill: #b8bcbc"/>
    <path d="M121.9,2790.1l-0.3-.6q0-12.3,0-24.7c0-3.4,1.3-4.7,4.6-4.7h66.2c3.3,0,4.6,1.3,4.6,4.6q0,18.2,0,36.4c-1.1-.3-2.2-0.6-2.5-2a15.7,15.7,0,0,0,.1-2.6q0-14.2,0-28.4a12.7,12.7,0,0,0-.1-2.1,3.1,3.1,0,0,0-2.7-2.8,13.7,13.7,0,0,0-2.4-.1H130c-4.6,0-5.3.7-5.3,5.3,0,6.8,0,13.7,0,20.5a6.4,6.4,0,0,1-.3,2.9C122.9,2792.6,122.3,2792.1,121.9,2790.1Z" transform="translate(-14.4 -2690.1)" style="fill: #939595"/>
    <path d="M195.5,2806.3l1.3-1.3a3.1,3.1,0,0,1,.3,1.9q0,17.3,0,34.7c0,3-1.4,4.4-4.4,4.4H171a3.3,3.3,0,0,0-2,.3l-0.6-.7c-0.9-.2-1.6-0.6-0.8-1.7a5.6,5.6,0,0,1,2.8-.4h19.7c3.6,0,4.6-1,4.6-4.6,0-9.8,0-19.7,0-29.5A4.3,4.3,0,0,1,195.5,2806.3Z" transform="translate(-14.4 -2690.1)" style="fill: #939595"/>
    <path d="M194.8,2799.5l2.3,1.6a1.4,1.4,0,0,1-.3,1,3.5,3.5,0,0,0-3.4-1.7H169.9a2.2,2.2,0,0,1-2.4-1.4,7.7,7.7,0,0,0-4.1-3.9,1.3,1.3,0,0,1-1.1-1.5c0.7-.7,1.5-0.4,2.2,0a12.9,12.9,0,0,1,3.5,3.3c1.3,1.7,2.5,2.2,4.6,1.6l0.9-.3c0.7,0,1.3.7,2.1,0.5l4.4,0.2h1.5c3.8-.2,7.7-0.1,11.5-0.1A1.7,1.7,0,0,1,194.8,2799.5Z" transform="translate(-14.4 -2690.1)" style="fill: #919393"/>
    <path d="M167.4,2844.3l1,1.3a3.2,3.2,0,0,1-2,.3H126.2c-3.3,0-4.6-1.3-4.6-4.6q0-24.6,0-49.2a3.3,3.3,0,0,1,.3-2l1.9,2a0.8,0.8,0,0,1,.5.6,32,32,0,0,1,.3,4.3,1.5,1.5,0,0,0,1.7,1.7,23.3,23.3,0,0,1,3.2.3h0.5a1.3,1.3,0,0,1,.6,1.4,1.6,1.6,0,0,1-1.7.7h-3.4c-2.3.1-3.3,2-2,3.9a2.4,2.4,0,0,1,.7,1.4,15.6,15.6,0,0,1,.2,3.4q0,13.9,0,27.9c0,0.8,0,1.5,0,2.3s1.3,3.3,3.5,3.4h35.3a10.8,10.8,0,0,1,3.5.4Z" transform="translate(-14.4 -2690.1)" style="fill: #787979"/>
    <path d="M123.9,2792.7v-0.6q0-12.5,0-25c0-3.5,1.3-4.8,4.8-4.8h62.2c3.4,0,4.7,1.3,4.7,4.7q0,15.2,0,30.5c0,0.7.3,1.6-.6,2H181.3a2.3,2.3,0,0,1-.8-1.9c-1.1-9.7-7-16.4-16.5-18.7a3.2,3.2,0,0,1-1.8-1c0-2.8,0-5.6,0-8.3a5.2,5.2,0,0,0-.3-2c-0.5-1.6-1.4-2.3-2.7-2.2a2.5,2.5,0,0,0-2.5,2.2c-0.6,2.2-.2,4.5-0.3,6.7s0,2.5,0,3.7a3.2,3.2,0,0,1-1.7,1.1c-9,2.3-14.9,9.3-15.9,18.6-0.1.9,0.1,1.9-1,2.3h-6a3.3,3.3,0,0,1-1.8-.5h-0.3A14.4,14.4,0,0,1,123.9,2792.7Z" transform="translate(-14.4 -2690.1)" style="fill: #a2a5a5"/>
    <path d="M167.1,2844.3H127.8c-2.6,0-4-1.5-4-4.2q0-16.9,0-33.8h0.1c3.9-.5,7.7-0.9,11.5.4h0.3a4.3,4.3,0,0,1,2.4,2,6.5,6.5,0,0,0,2,2,20.4,20.4,0,0,1,1.1,1.8,13.2,13.2,0,0,0,5.8,6.8l1.6,1.4c0.8,1.9,2.7,2.8,3.8,4.5s3.4,3.7,4.1,6.3v0.3a7.2,7.2,0,0,1,.7,3.9c0,0.8,0,1.6,0,2.4s0.3,2.3,1.6,2.7,2-.4,2.6-1.3a1.2,1.2,0,0,1,1-.7C164.1,2838.7,167.5,2842.7,167.1,2844.3Z" transform="translate(-14.4 -2690.1)" style="fill: #838585"/>
    <path d="M167.1,2844.3a50.6,50.6,0,0,0-4.6-5.5,0.2,0.2,0,0,1-.1-0.2h0.1V2824a2.6,2.6,0,0,1,1.5-.8c8.2-2.1,13.6-7.1,15.9-15.3a2.8,2.8,0,0,1,.9-1.3h12.2a6,6,0,0,0,2.4-.3q0,16.6,0,33.2c0,3.6-1.3,4.8-4.9,4.8H167.1Z" transform="translate(-14.4 -2690.1)" style="fill: #a2a5a5"/>
    <path d="M165.2,2801.1a6.2,6.2,0,0,1-4,8.5,6.1,6.1,0,0,1-7.5-6.9l0.2-1.3c0.1-2.5,2.8-4.3,4.6-4.6a6.2,6.2,0,0,1,6.8,3.9A0.5,0.5,0,0,1,165.2,2801.1Z" transform="translate(-14.4 -2690.1)" style="fill: #c9cece"/>
    <path d="M180,2799.5h-4.9c-0.9-.4-1-1.2-1.2-2a14.8,14.8,0,0,0-10.2-9.7,2.5,2.5,0,0,1-1.5-.9v-4.8a1.9,1.9,0,0,1,2.2-.6c7.3,1.4,14.5,8.4,15.9,15.6C180.5,2797.9,180.8,2798.8,180,2799.5Z" transform="translate(-14.4 -2690.1)" style="fill: #878989"/>
    <path d="M156.4,2782.1v4.9a1.8,1.8,0,0,1-1.3,1,15,15,0,0,0-10,10.7,1.4,1.4,0,0,1-.8,1.3,39.4,39.4,0,0,1-4.7,0,1.5,1.5,0,0,1-.7-1.9,20.4,20.4,0,0,1,6.9-11.8,20.1,20.1,0,0,1,8.6-4.5A1.7,1.7,0,0,1,156.4,2782.1Z" transform="translate(-14.4 -2690.1)" style="fill: #878989"/>
    <path d="M174.8,2806.6h4.9a1.5,1.5,0,0,1,.3,1.9q-3.8,11.6-15.7,14.6a1.3,1.3,0,0,1-1.6-.5v-4.8a3.1,3.1,0,0,1,1.7-1.1,14.8,14.8,0,0,0,9.3-8.7A2.1,2.1,0,0,1,174.8,2806.6Z" transform="translate(-14.4 -2690.1)" style="fill: #878989"/>
    <path d="M139.7,2806.6h4.9a2.1,2.1,0,0,1,1.2,1.4,14.8,14.8,0,0,0,9.3,8.8,2.3,2.3,0,0,1,1.3,1v4.8a1.4,1.4,0,0,1-1.7.3c-3.9-.8-6.9-3-9.8-5.5l-1.4-1.3a38.9,38.9,0,0,1-3.8-7.3C139.3,2808.2,138.8,2807.4,139.7,2806.6Z" transform="translate(-14.4 -2690.1)" style="fill: #878989"/>
    <path d="M180,2799.5c-1.4-8.7-7.3-15.2-15.5-17.2a7.8,7.8,0,0,0-2.2-.2v-4.2c6.7,0.7,11.7,4,15.5,9.5a20,20,0,0,1,3.5,12.1H180Z" transform="translate(-14.4 -2690.1)" style="fill: #939595"/>
    <path d="M156.4,2782.1c-7.6.7-15.1,7.7-16.7,15.5l-0.3,1.9a0.8,0.8,0,0,1-1.3,0c0.1-11.1,7.6-20,18.4-21.6v4.2Z" transform="translate(-14.4 -2690.1)" style="fill: #939595"/>
    <path d="M173.5,2798.5a0.9,0.9,0,0,1-1.1,1h-3.4c-0.8,0-1-.6-1.4-1.2-1.3-2.2-2.9-4-5.5-4.6v-5.6a1.5,1.5,0,0,1,1.8-.2,14.9,14.9,0,0,1,9.6,8.9C173.9,2797.3,174.2,2797.9,173.5,2798.5Z" transform="translate(-14.4 -2690.1)" style="fill: #a2a5a5"/>
    <path d="M156.4,2788.2v5.6a2.4,2.4,0,0,1-1.1,1.1,8.5,8.5,0,0,0-3.8,4,1.9,1.9,0,0,1-2,1.2h-2.8a1.3,1.3,0,0,1-1.5-.9c-0.1-2.2,1-3.9,2.2-5.5a14.2,14.2,0,0,1,7.3-5.5A1.4,1.4,0,0,1,156.4,2788.2Z" transform="translate(-14.4 -2690.1)" style="fill: #a2a5a5"/>
    <path d="M135.5,2806.6h-9.8a4.7,4.7,0,0,1-1.9-.3,2.9,2.9,0,0,1-1.4-3.7,3.1,3.1,0,0,1,3.5-2.1h4.6a0.3,0.3,0,0,1,.4,0C132,2802.9,134.1,2804.4,135.5,2806.6Z" transform="translate(-14.4 -2690.1)" style="fill: #949898"/>
    <path d="M162.6,2816.6c0-.5,0-1,0-1.4s0.1-3.4,2.2-4.2a5.7,5.7,0,0,0,2.8-3.2,2,2,0,0,1,2.1-1.3h3.8a1.6,1.6,0,0,1-.1,1.8,15,15,0,0,1-9.1,8.4A1.4,1.4,0,0,1,162.6,2816.6Z" transform="translate(-14.4 -2690.1)" style="fill: #a2a5a5"/>
    <path d="M145.8,2806.6H147c2.2-.1,4.3-0.3,5.3,2.4a4.1,4.1,0,0,0,2,2,3.4,3.4,0,0,1,2,4,13.8,13.8,0,0,0,0,1.6,1.4,1.4,0,0,1-1.6.1,14.9,14.9,0,0,1-9.1-8.8A1.3,1.3,0,0,1,145.8,2806.6Z" transform="translate(-14.4 -2690.1)" style="fill: #a2a5a5"/>
    <path d="M162.6,2838.5v0.3l-0.6,1.1a2.9,2.9,0,0,1-5.5-1.2c0-2.3,0-4.7,0-7,1.9,1.8,3.4,3.9,5.1,5.8A3.3,3.3,0,0,0,162.6,2838.5Z" transform="translate(-14.4 -2690.1)" style="fill: #949898"/>
    <path d="M162.6,2822.7a19.2,19.2,0,0,0,14.5-9.4,16.2,16.2,0,0,0,2.6-6.7h1.3c-1.4,8.9-9.6,16.6-18.3,17.4v-1.3Z" transform="translate(-14.4 -2690.1)" style="fill: #939595"/>
    <path d="M156.4,2831.4l-8.4-10.3a1,1,0,0,1,1.4-.1,19.6,19.6,0,0,0,5.8,2.2,2.3,2.3,0,0,1,1.1.8v7.4Z" transform="translate(-14.4 -2690.1)" style="fill: #a2a5a5"/>
    <path d="M130.9,2800.4h-0.4l-0.6-.9h14.5c0.4-.3.6-0.9,1.3-0.7s4.9,0.9,5.9-.8a9.4,9.4,0,0,1,4.8-4.3,1.4,1.4,0,0,1-.9,1.7,7.9,7.9,0,0,0-3.8,3.8,2.1,2.1,0,0,1-2.3,1.3H130.9Z" transform="translate(-14.4 -2690.1)" style="fill: #919494"/>
    <path d="M173.5,2798.5c-1.7-5.7-5.4-9.2-11.2-10.4v-1.2c6.2,1.1,10.1,4.8,12.2,10.6,0.2,0.7.4,1.3,0.6,2A1.5,1.5,0,0,1,173.5,2798.5Z" transform="translate(-14.4 -2690.1)" style="fill: #7b7d7d"/>
    <path d="M145.7,2798.8a1.5,1.5,0,0,1-1.3.7c0.5-4.9,3.5-8.2,7.4-10.8a16,16,0,0,1,4.5-1.8v1.2C150.9,2789.7,147.2,2793.1,145.7,2798.8Z" transform="translate(-14.4 -2690.1)" style="fill: #7b7d7d"/>
    <path d="M162.6,2816.6c5.6-1.2,9-4.8,10.9-10h1.2c-2,6-5.9,9.9-12.2,11.2v-1.2Z" transform="translate(-14.4 -2690.1)" style="fill: #7b7d7d"/>
    <path d="M145.8,2806.6c1.8,5.2,5.3,8.6,10.6,10v1.2c-6-1.6-9.9-5.4-11.9-11.2h1.2Z" transform="translate(-14.4 -2690.1)" style="fill: #7b7d7d"/>
    <path d="M156.4,2824c-3-.3-5.6-1.8-8.4-2.9l-1.3-1.3c-1.2-1.1-2.6-2-3.1-3.7l0.2-.2a29.2,29.2,0,0,0,7.4,5.3,14.9,14.9,0,0,0,5.2,1.5v1.3Z" transform="translate(-14.4 -2690.1)" style="fill: #939595"/>
    <path d="M165.2,2801.1a5.9,5.9,0,0,0-5.8-3.8,6.2,6.2,0,0,0-5.6,4.1c-0.2-1.8,1.2-4,3.3-4.7s6.4-.4,7.9,2.9A1.3,1.3,0,0,1,165.2,2801.1Z" transform="translate(-14.4 -2690.1)" style="fill: #b3b8b8"/>
    <path d="M139.7,2806.6c0.4,3,1.8,5.5,3.4,8a3.5,3.5,0,0,1,.8,1.4h0c-0.7.3-.9-0.3-1.3-0.6a17.6,17.6,0,0,1-2-2.6,4.8,4.8,0,0,0-1-1.6,14.7,14.7,0,0,1-1.5-2.5,1.5,1.5,0,0,1,.2-2h1.3Z" transform="translate(-14.4 -2690.1)" style="fill: #939595"/>
    <path d="M156.7,2767.5c-0.5-1.3.4-1.9,1.2-2.4a2.4,2.4,0,0,1,2.8,0c0.8,0.6,1.7,1.2,1.2,2.4C160.1,2765.3,158.5,2765.3,156.7,2767.5Z" transform="translate(-14.4 -2690.1)" style="fill: #919494"/>
    <path d="M138.4,2806.6a20.5,20.5,0,0,0,1.3,4.5,30.9,30.9,0,0,1-3.9-4.5h2.6Z" transform="translate(-14.4 -2690.1)" style="fill: #a1a4a4"/>
    <path d="M123.9,2792.7a60.4,60.4,0,0,1,5.8,6.8h-4.5a1.1,1.1,0,0,1-1.3-1.4C123.9,2796.3,123.9,2794.5,123.9,2792.7Z" transform="translate(-14.4 -2690.1)" style="fill: #848686"/>
    <path d="M140.6,2812.7c1.3,0.9,1.9,2.5,3.2,3.3s2,2.5,2.9,3.9A15.7,15.7,0,0,1,140.6,2812.7Z" transform="translate(-14.4 -2690.1)" style="fill: #797a7a"/>
  </g>
</svg>
