<svg id="d3607833-64b4-4993-b36a-ee8d949a9868" data-name="Pagina Movil" xmlns="http://www.w3.org/2000/svg" viewBox="0 0 290.5 208.2">
  <title>proyecto2</title>
  <g id="6191db9e-fa45-47eb-bfdd-015b8871b6cf" data-name="proyecto 2">
    <path d="M161.3,2227.3H306.6q-0.1,104.1,0,208.2H16q0.1-104.1,0-208.2H161.3Z" transform="translate(-16 -2227.3)" style="fill: #1fa3b5"/>
    <path d="M161.2,2249.4c44.7-.2,83.5,36,82.6,83.9-0.9,45-38.4,81.2-84.8,80.1A82,82,0,0,1,161.2,2249.4Z" transform="translate(-16 -2227.3)" style="fill: #df5b49"/>
    <path d="M100.3,2342.7c-3.2-1.2-3.8-4.2-1.3-6.4,7.8-6.7,15.5-13.5,23.5-20,10.3-8.4,20.3-17.3,30.5-25.9a3.7,3.7,0,0,1,2.2-.9c21.6-1.7,39.8,5.2,54.7,21,9.9,10.5,15.2,23.1,16.6,37.4,0.4,4.1.8,8.3-.6,12.4a17.5,17.5,0,0,1-15.6,11.8H102c-1.6,0-3-.2-3.9-1.6s-0.4-4.3,2.3-5.4a2.7,2.7,0,0,1,2.2-.6H208.8c3.5,0,6.4-1.1,8.4-4a11,11,0,0,0,.9-11.5c-1.8-3.8-5.1-5.4-9.2-5.5H164.4c-3,0-3,0-3.3,3,0.1,1.2.1,2.3,0.1,3.5s-0.5,2.8-2.2,3.1a0.8,0.8,0,0,0-.7.8,11.7,11.7,0,0,1-.1,2.2,33.1,33.1,0,0,1,.1,4.1,4.4,4.4,0,0,1-1.2,3.1c-1.8,1.3-2.8,1.3-4.6,0s-1.3-2.7-1.3-4.3a28.8,28.8,0,0,1,.1-3,9.8,9.8,0,0,1,0-2.3,51,51,0,0,1,0-6.9c-0.3-4.2-.2-3-7-3.3-3.5-.2-7-0.1-10.5,0-6,.3-5.9-0.7-6.3,2.9a26.4,26.4,0,0,1,0,4.3,2.2,2.2,0,0,1-1.9,2.3,2,2,0,0,1-2.5-1.3c-0.1-1.6,0-3.2,0-4.8s0-1,0-1.5c-0.1,4.1.3,8.1,0.1,12.2-0.6,1.8-1.8,2.6-3.4,2.4a3.1,3.1,0,0,1-2.5-3.3,4.1,4.1,0,0,0,0-.9,10.2,10.2,0,0,1,0-2,57.1,57.1,0,0,1,0-7.2c-0.2-2.9-.2-2.9-3.2-2.9H102.5A2.7,2.7,0,0,1,100.3,2342.7Z" transform="translate(-16 -2227.3)" style="fill: #5b2b0b"/>
    <path d="M157.1,2354.7v-0.2c0.5-1.7,1.6-1.6,2.6-1.6h48.9a8.1,8.1,0,0,0,2.8-.3,2.8,2.8,0,0,0,2-3.1,2.4,2.4,0,0,0-2.6-2.3H163.3c-1,0-2.1.3-2.8-.8-0.2-3.7-.2-3.7,3.4-3.7h44.2c4.7,0,8.6,1.6,10.6,6,3.4,7.4-.6,16.5-9.9,16.5H99.8c0.3-3.3,1.8-2.9,3.1-2.9h47.1a4.6,4.6,0,0,1,2.9.7,3.3,3.3,0,0,0,3.9,0,5.3,5.3,0,0,1,3.2-.7h51.2a2.8,2.8,0,0,0-.1-5.6H160.5C159.2,2356.4,157.8,2356.8,157.1,2354.7Z" transform="translate(-16 -2227.3)" style="fill: #fefefe"/>
    <path d="M152.8,2362.8H100.3a17.4,17.4,0,0,1,0-7.2,2.3,2.3,0,0,1,1.9-.6H116a2.6,2.6,0,0,1,1.8.5c0,0.3,0,.5,0,0.8a2.4,2.4,0,0,0,1.9,2.7,2.4,2.4,0,0,0,3-1.7c0.3-.6-0.2-1.4.5-1.9a2.7,2.7,0,0,1,1.7-.3h24.8a2.4,2.4,0,0,1,2.1.6c0,1.4.1,2.8,0,4.1A4.1,4.1,0,0,0,152.8,2362.8Z" transform="translate(-16 -2227.3)" style="fill: #eec74a"/>
    <path d="M117.8,2346.1q0,3.7,0,7.3a2,2,0,0,1-1.9.7H102.2a2.2,2.2,0,0,1-1.9-.7v-7.3a2.3,2.3,0,0,1,2-.7h13.4A2.1,2.1,0,0,1,117.8,2346.1Z" transform="translate(-16 -2227.3)" style="fill: #eec74a"/>
    <path d="M117.8,2346.1H100.3v-3.5h16.4c0.9,0,1.2.3,1.1,1.2S117.8,2345.4,117.8,2346.1Z" transform="translate(-16 -2227.3)" style="fill: #fefefe"/>
    <path d="M100.3,2353.5h27.1c-7.3,3-14.7,2.1-22,2.2h-5.1v-2.2Z" transform="translate(-16 -2227.3)" style="fill: #fefdfc"/>
    <path d="M164.4,2330.1a17.6,17.6,0,0,1-8.8-4.3,15.9,15.9,0,0,1,10.3-27.5,16.6,16.6,0,0,1,12.2,4.6,3.1,3.1,0,0,1,2.1,1.6c3.8,5.6,4.3,11.6,1.1,17.5s-8.4,8.8-15.2,8.7A1.8,1.8,0,0,1,164.4,2330.1Z" transform="translate(-16 -2227.3)" style="fill: #d05322"/>
    <path d="M157.7,2355.7h52.7c2.9,0,4,1.3,4.1,4.6a2.3,2.3,0,0,1-2.1,2.4c-1.9.1-3.8,0.1-5.7,0.1H156.7c1-1.1.9-2.4,0.9-3.7S157.6,2356.8,157.7,2355.7Z" transform="translate(-16 -2227.3)" style="fill: #eec74a"/>
    <path d="M160.6,2346.3h49.7c2.7,0,4,1.2,3.9,3.6h0c-1.3,3.8-3.1,3.4-4.8,3.4H157.6c-0.1-.7-0.2-1.3.9-1.1s1.9-.6,1.9-1.9S160.6,2347.7,160.6,2346.3Z" transform="translate(-16 -2227.3)" style="fill: #eec74a"/>
    <path d="M164.4,2330.1c5.1,0.4,9.7-.7,13.5-4.4a15.9,15.9,0,0,0,.8-22l-0.6-.7a0.9,0.9,0,0,1,1.2-.1c9.8,3.7,13.3,16.1,7,24.5a16.3,16.3,0,0,1-21.7,3.6C164.5,2330.9,162.8,2330.6,164.4,2330.1Z" transform="translate(-16 -2227.3)" style="fill: #3f1e07"/>
    <path d="M151.8,2346.3v7.1a2.2,2.2,0,0,1-2,.7H124.9a2.5,2.5,0,0,1-1.8-.5c-0.2-.8-0.7-1.7.2-2.4a2,2,0,0,0,2.6,1c1-.3,1-1.2,1-2.1s0-2.7.1-4a2,2,0,0,1,1.9-.7H148A6.4,6.4,0,0,1,151.8,2346.3Z" transform="translate(-16 -2227.3)" style="fill: #eec74a"/>
    <path d="M151.8,2346.3c-8.3-.3-16.5-0.1-24.8-0.2-0.2-3.5-.2-3.5,3.3-3.5,6.6,0,13.1.1,19.7-.1,1.7,0,2.1.5,1.9,2A15.4,15.4,0,0,0,151.8,2346.3Z" transform="translate(-16 -2227.3)" style="fill: #fefefe"/>
    <path d="M123.1,2353.4h28.7v2.2H123.1A2.6,2.6,0,0,1,123.1,2353.4Z" transform="translate(-16 -2227.3)" style="fill: #fefdfc"/>
    <path d="M123.1,2353.4a5.4,5.4,0,0,0,0,2.3,2.7,2.7,0,0,1-.3,1.6c0-4.3,0-8.6,0-13a2.6,2.6,0,0,1,.2-1.7c1,1.7-1.1,3.7,2.3,5.1v2.4C122.4,2351,123.2,2352.3,123.1,2353.4Z" transform="translate(-16 -2227.3)" style="fill: #caa23c"/>
    <path d="M123.3,2346.1c-0.8-1.1-.1-2.3-0.4-3.5C123.9,2343.7,123.2,2345,123.3,2346.1Z" transform="translate(-16 -2227.3)" style="fill: #d5c9c1"/>
    <path d="M167.6,2302.9a1.7,1.7,0,0,1-1.5.7c-5.6.5-9.3,4-10.2,9.5-0.1.9,0.3,2.5-1.3,2.2s-1.1-1.7-.9-2.8a12.8,12.8,0,0,1,10.9-11.1c1-.2,2.1-0.5,3,0.5A0.7,0.7,0,0,1,167.6,2302.9Z" transform="translate(-16 -2227.3)" style="fill: #eeb4a2"/>
    <path d="M167.6,2302.9q0-.5,0-1T167.6,2302.9Z" transform="translate(-16 -2227.3)" style="fill: #d66337"/>
  </g>
</svg>
