<svg id="f8b3da0b-0ecf-465b-af67-13d846f9b311" data-name="Pagina Movil" xmlns="http://www.w3.org/2000/svg" viewBox="0 0 290.4 212.7">
  <title>proyecto5</title>
  <g id="c3a70d89-bfc1-41c9-a981-10a719588acc" data-name="proyecto 5">
    <path d="M160.9,3138.6H15.7q0.1-106.3,0-212.7H306.1q-0.1,106.3,0,212.7H160.9Z" transform="translate(-15.7 -2926)" style="fill: #130f0f"/>
    <path d="M80.3,3050.5a69.7,69.7,0,0,1-2-15.3,83.6,83.6,0,0,1,34.7-71.1c16.8-12.5,35.8-17,56.4-15.1a76.3,76.3,0,0,1,37.1,13.4c9.4,6.5,17.6,14.4,23.7,24.2a84.6,84.6,0,0,1,13,52.3,65.8,65.8,0,0,1-1.8,11.6,2.2,2.2,0,0,1-1.8.6h-5.1c-1.4,0-2.3-.6-2.4-2a1.2,1.2,0,0,0-1.3-1.5c-1.1,0-1.3.6-1.4,1.5a2,2,0,0,1-2.2,2h-2.7c-1.9-.1-2.2-0.4-2.7-2.5a1.1,1.1,0,0,0-1.2-1,1,1,0,0,0-1.1,1c-0.1,1-.1,2.1-1.3,2.3s-3.1.6-4.4-.6a13,13,0,0,1-.7-4.5c-0.1-1.4-.2-2.9-0.3-4.3a16.2,16.2,0,0,1,.3-4.5c1.6-1.9,1.7-4,1.7-6.4-0.1-4.9,0-9.9,0-14.8-0.7-1.8-2.3-2.8-3.7-3.9-8.5-7-17.3-13.8-25.8-20.9-6.5-5.5-13.2-10.7-19.6-16.1a15.1,15.1,0,0,0-2.2-1.6,6.6,6.6,0,0,1-1.4-1,3.2,3.2,0,0,1-1.1-2.2c0-2.8,0-5.7,0-8.5s0.7-3,3.2-2.4a1.7,1.7,0,0,1,.7,1.7,3.3,3.3,0,0,0,.3,1.7l0.4,0.2h12.5a5.1,5.1,0,0,0-1.4-1.6c-1.2-1.2-1.2-1.7,0-2.8a4.1,4.1,0,0,0,1.1-1.2c-2.5-.4-5.1.3-7.5-0.5a2.1,2.1,0,0,1-.7-1.9c0.1-1.3-.6-1.6-1.8-1.6h-4.5a2.4,2.4,0,0,1-2.3-.9c-0.2-.2-0.3-0.3-0.4,0-0.1,5.5,0,10.9,0,16.4a3.8,3.8,0,0,1-1.2,3.2l-0.5.6a3.8,3.8,0,0,0-1.5,1.1c-5.4,4.4-11,8.6-16.3,13.2-10,8.6-20.4,16.6-30.6,24.9-1.1.9-1.9,2-3.1,2.8a1.3,1.3,0,0,0-.6,1.1c0,5.7,0,11.4,0,17.1a4.8,4.8,0,0,0,1.1,3.1,3.5,3.5,0,0,1,.9,1.8c-0.1,1.3,0,2.5-.1,3.8s-0.1,5-.5,7.5a3.2,3.2,0,0,1-.5,1.5c-1.6.9-3.2,0.6-4.8,0.3a1.9,1.9,0,0,1-1.4-2,1.2,1.2,0,0,0-1.3-1.3c-0.9,0-.9.7-1.1,1.3s-0.7,2.1-2.4,2.1H94.4c-2-.1-2.4-0.4-2.8-2.3a1.1,1.1,0,0,0-1.1-1.2,1.1,1.1,0,0,0-1.3,1.1c-0.4,1.9-.9,2.3-2.8,2.3H82.2A2.4,2.4,0,0,1,80.3,3050.5Z" transform="translate(-15.7 -2926)" style="fill: #ebefef"/>
    <path d="M223.8,3086.3c-4.5,6.2-10.4,10.9-16.6,15.2a86.1,86.1,0,0,1-20.4,10.1c-16.2,5.8-32.6,5.6-49,1.1-1.1-.3-2-1-3-1.3a16.5,16.5,0,0,1-3.2-2.6c-5.8-5.7-11.7-11.3-17.4-17.1-1-1-2.3-1.8-3.2-2.9s-1.1-1.1-.9-2a0.9,0.9,0,0,1,.5-0.5c1.5,0,2.6,1.3,4,1.5,4,1.3,8,2.6,12.2,2.8,2.4,1,4.9,1,7.4,1.4l4,0.5c1.5-.1,3,0.3,4.5.3,8.9,0.7,17.8.5,26.6,0.5,3.3,0,6.5-.5,9.8-0.5,1.5,0,3.1-.5,4.6-0.3l11.5-1.6a101.6,101.6,0,0,0,11.9-3.1,28.1,28.1,0,0,0,6.7-3.6c1.4-.7,1.5-2.4,2.6-3.3a0.8,0.8,0,0,1,.6.1A48.4,48.4,0,0,1,223.8,3086.3Z" transform="translate(-15.7 -2926)" style="fill: #838383"/>
    <path d="M110.3,3087c0.3,1.2,1.3,1.8,2.1,2.5,4,3.5,7.6,7.4,11.4,11.1l9.7,9.4,1.3,1.4a78.7,78.7,0,0,1-30.3-18A84.6,84.6,0,0,1,84.8,3065l-0.3-.9a2.6,2.6,0,0,1,2-.5c3.3-.2,6.5.1,9.8,0s5.6-.1,8.3,0a6.2,6.2,0,0,1,1.9.2c1,0.7.8,1.7,0.7,2.6-0.4,4.7-.6,9.5-1,14.2a4.6,4.6,0,0,0,1.4,3.4,7.3,7.3,0,0,1,1.9,1.5A3.9,3.9,0,0,1,110.3,3087Z" transform="translate(-15.7 -2926)" style="fill: #b4b4b4"/>
    <path d="M223.8,3086.3c-1.6-.4-2.6-1.7-4-2.6s-2.3-1.7-3.4-2.6a2.2,2.2,0,0,1-1-2.1c-0.2-4.4-.6-8.8-0.9-13.1a2.5,2.5,0,0,1,.5-2.1,25.6,25.6,0,0,1,6.7-.4,76.6,76.6,0,0,0,8,0c2.2-.2,4.4.2,6.6,0.2a1.3,1.3,0,0,1,1,.4A76.4,76.4,0,0,1,223.8,3086.3Z" transform="translate(-15.7 -2926)" style="fill: #b4b4b4"/>
    <path d="M237.4,3064.1H215.2a0.3,0.3,0,0,1-.1-0.3h0.1c0.7-.6,1.5-0.4,2.3-0.5s0.9-.1.9-0.7-0.5-.6-0.9-0.7-1.8.4-2.7,0a4.4,4.4,0,0,1-.2-4.1c0.7-.8,1.6-0.6,2.5-0.7a1.1,1.1,0,0,0,1.3-1.2c0-1-.6-1.1-1.4-1.1s-1.9.1-2.7-.6-1.2-2.6,0-3.9c1.3,0.6,2.6.3,4,.3s0.8-.8.8-1.4,1.2-2.6,3-2,0.6,0.9.6,1.5,0.6,2.2,2.1,2h2.4c1.4,0.1,2.1-.3,1.9-1.8s-0.3-1.5.5-1.6a4.8,4.8,0,0,1,3,.1c0.5,0.3.4,1,.3,1.5s0.5,1.9,1.9,1.9h6.8a13.4,13.4,0,0,1-.9,3.6,2.7,2.7,0,0,1-2.1.6h-3.7a1.1,1.1,0,0,0-1.3,1.2,1,1,0,0,0,1.3,1.1h2.9a2.2,2.2,0,0,1,1.9.6,13.5,13.5,0,0,1-1.2,3.6c-1,.9-2.2.5-3.3,0.6s-1.4-.1-1.3.7,0.8,0.5,1.3.6,1.8-.2,2.5.6A0.3,0.3,0,0,1,237.4,3064.1Z" transform="translate(-15.7 -2926)" style="fill: #d7d7d7"/>
    <path d="M106.7,3064.1H84.5a0.3,0.3,0,0,1-.1-0.3c0.7-.8,1.7-0.5,2.5-0.7s0.9,0,1-.6-0.5-.7-1-0.7-2.4.3-3.4-.6a13.5,13.5,0,0,1-1.2-3.6c1-1,2.2-.5,3.3-0.6h1.6a1,1,0,0,0,.8-1.2,0.9,0.9,0,0,0-1-1H83.5a2.9,2.9,0,0,1-2.2-.6,13.3,13.3,0,0,1-.9-3.6h6.4c1.4,0.1,2.1-.4,1.9-1.8s0.5-1.8,1.8-1.8,1.9,0.4,1.7,1.7,0.4,2,1.8,1.9h1.4a7.3,7.3,0,0,0,2.7-.2c1-.5.4-1.6,0.5-2.5s1.2-.8,1.9-0.9,1.6-.3,1.7.9a4.8,4.8,0,0,1,0,.8c-0.2,1.4.5,1.9,1.9,1.8h3.5c1.1,1.2.6,2.4,0,3.6s-2.2.5-3.4,0.6-1.4.2-1.4,1.1,0.6,1.1,1.4,1.2,2.2-.2,3,0.6a4.9,4.9,0,0,1-.1,4.4c-1.1.2-2-.6-3.1-0.3s-1.2,0-1.1.8,0.7,0.5,1.1.6,1.8-.2,2.6.5A0.3,0.3,0,0,1,106.7,3064.1Z" transform="translate(-15.7 -2926)" style="fill: #d7d7d7"/>
    <path d="M239.6,3057.6c-1.8,0-3.5-.1-5.3,0s-1.4-.8-1.4-1.8,0.1-1.8,1.5-1.8,4.2,0,6.3,0A13.7,13.7,0,0,1,239.6,3057.6Z" transform="translate(-15.7 -2926)" style="fill: #ebefef"/>
    <path d="M81.2,3054.1c2,0,4,.1,5.9,0s1.5,0.7,1.5,1.8,0.1,1.9-1.4,1.8-3.3,0-5,0A13.7,13.7,0,0,1,81.2,3054.1Z" transform="translate(-15.7 -2926)" style="fill: #ebefef"/>
    <path d="M237.5,3063.8h-3c-1,0-1.6-.1-1.6-1.3s0.6-1.3,1.5-1.3h4A7.3,7.3,0,0,1,237.5,3063.8Z" transform="translate(-15.7 -2926)" style="fill: #e9eded"/>
    <path d="M83.5,3061.2H87c1,0,1.6.1,1.6,1.3s-0.7,1.3-1.6,1.3H84.4A7.3,7.3,0,0,1,83.5,3061.2Z" transform="translate(-15.7 -2926)" style="fill: #e9eded"/>
    <path d="M158.8,2972.4l0.2-.2a0.7,0.7,0,0,1,.8-0.3l0.3,0.3a1.2,1.2,0,0,1-.3,1.1,38.3,38.3,0,0,0-3.9,5.5c-6.7,9.7-13.2,19.5-20,29.2a50.2,50.2,0,0,0-3.7,5.6,3.8,3.8,0,0,1-1.8,1.8h-0.5c-3.2.3-6.5,0.1-9.7,0.1a2.4,2.4,0,0,1-1.2-.3,0.8,0.8,0,0,1-.1-1.2,28.2,28.2,0,0,1,2.7-3.4c5.9-5.7,11.5-11.7,17.2-17.6,4.1-4.3,8.2-8.6,12.2-13a78.8,78.8,0,0,1,6.6-6.4A13.2,13.2,0,0,1,158.8,2972.4Z" transform="translate(-15.7 -2926)" style="fill: #fefefe"/>
    <path d="M162.7,2972.1l1,0.6c4.5,4.4,9,8.8,13.2,13.4,7.3,8,14.9,15.8,22.5,23.5,1.3,1.3,2.3,2.8,3.5,4.2s0.8,1.1-.2,1.5a70.8,70.8,0,0,1-10.7.1h-0.5a3.8,3.8,0,0,1-1.8-1.7c-3.4-5.8-7.5-11.1-11.3-16.6-5-7.2-9.7-14.6-14.8-21.8l-1.3-1.7-0.2-.5a1.3,1.3,0,0,1,.1-0.7A0.5,0.5,0,0,1,162.7,2972.1Z" transform="translate(-15.7 -2926)" style="fill: #fefefe"/>
    <path d="M157.7,2973.8c-4.2,4.3-8.5,8.6-12.5,13-7.8,8.6-16.1,16.7-24.1,25.1a31,31,0,0,1-2.5,2.9,1.2,1.2,0,0,1-.6.6c-3.5.5-6.9,0.2-10.4,0.2a1.4,1.4,0,0,1-1.1-.6c6.4-6,13.5-11.2,20.3-16.8,4-3.3,8.2-6.3,12-9.7,6-5.3,12.3-10.1,18.5-15.1C157.6,2973.3,157.8,2973.4,157.7,2973.8Z" transform="translate(-15.7 -2926)" style="fill: #e35136"/>
    <path d="M203.2,3015c-4.6-5.8-10.1-10.8-15.1-16.2-3.1-3.3-6.4-6.4-9.3-9.7-4.5-5.1-9.4-9.9-14-14.8a3.1,3.1,0,0,1-1-1.6c4.1,3.3,8.3,6.4,12.3,9.8,11.9,10,24.1,19.7,36.1,29.4,1.1,0.9,2.2,2,3.2,3a1.8,1.8,0,0,1-1.4.6h-9.5l-0.8-.2Z" transform="translate(-15.7 -2926)" style="fill: #e35136"/>
    <path d="M106.5,3015h11.9a2.5,2.5,0,0,1,.6,2.1c0,5.3,0,10.6,0,15.9a7,7,0,0,1-.8,2.5c-1.5,3-4,3.9-7.2,3.5a3.5,3.5,0,0,1-2.3-1.1,1.3,1.3,0,0,0-.2-0.6c-2.2-1.8-2.2-4.2-2.2-6.7,0.1-4.6,0-9.2,0-13.8C106.3,3016.2,106.4,3015.6,106.5,3015Z" transform="translate(-15.7 -2926)" style="fill: #b13424"/>
    <path d="M203.5,3015.1h11.9c0.3,3.1.1,6.2,0.1,9.3s0,5.8,0,8.7a4.6,4.6,0,0,1-2,4c-0.2,1.5-1.4,1.8-2.6,2.1-3.6.4-5.7-.6-7.2-3.5a8.4,8.4,0,0,1-.8-2.4c-0.1-5.3,0-10.6,0-15.9A2.7,2.7,0,0,1,203.5,3015.1Z" transform="translate(-15.7 -2926)" style="fill: #b13424"/>
    <path d="M106.7,3064.1a0.5,0.5,0,0,0,0-.3,1,1,0,0,1,.1-1.6,18.1,18.1,0,0,0,.3-4.6,3.6,3.6,0,0,1,.3-3.5l0.3-3.6,0.8-9a2.4,2.4,0,0,1,2.6,1.3c0.5,2.3-.1,4.6-0.2,6.9-0.2,3.8-.5,7.7-0.8,11.5-0.4,5.7-.7,11.3-1.2,17a30.8,30.8,0,0,1-.3,5,2.3,2.3,0,0,1-.7,1.6,4.9,4.9,0,0,1-2-4.7C106.1,3074.7,106.3,3069.4,106.7,3064.1Z" transform="translate(-15.7 -2926)" style="fill: #e35136"/>
    <path d="M214.8,3057.6a16,16,0,0,0,.3,4.2,1.3,1.3,0,0,1,.1,1.9,0.4,0.4,0,0,0,0,.3c0.3,5.7.7,11.4,1.2,17.1a5.2,5.2,0,0,1-2.2,3.4c-1.1-1.2-.9-2.7-1-4.1l-1.6-22.7c-0.3-4.5-.6-9-1-13.4a3.4,3.4,0,0,1,.2-1.6,2.4,2.4,0,0,1,2.6-1.3l0.7,8.7,0.3,3.9A3.5,3.5,0,0,1,214.8,3057.6Z" transform="translate(-15.7 -2926)" style="fill: #e35136"/>
    <path d="M170.6,2956.6h9.1a28.2,28.2,0,0,1-2.7,2.3c-1.2.8-.9,1.3,0,2a16.9,16.9,0,0,1,1.8,1.6c0.2,0.2.6,0.3,0.5,0.7s-0.5.3-.8,0.3H165.1a1.2,1.2,0,0,1,.7-1.5l2.5-1.7h-0.2c-2.4,0-2.3,0-3,2.3a2.4,2.4,0,0,1-.4,1c-0.6-1.2-.1-2.6-0.3-3.9a0.9,0.9,0,0,1,1-.8h1.4C168.6,2958.8,170,2958.6,170.6,2956.6Z" transform="translate(-15.7 -2926)" style="fill: #b13424"/>
    <path d="M170.6,2956.6c-0.1,2.8.4,2.5-2.7,2.6-1.1,0-2.3-.3-3.4.3-3-.1-3-0.1-3,2.9s0,5.4,0,8.1a0.4,0.4,0,0,1-.5-0.2,1.9,1.9,0,0,1-.2-0.9q0-8.2,0-16.4a1.2,1.2,0,0,1,.6-1.4,1.1,1.1,0,0,0,1.3,1.2H169c1.2,0,1.5.4,1.4,1.5A4.9,4.9,0,0,0,170.6,2956.6Z" transform="translate(-15.7 -2926)" style="fill: #e35136"/>
    <path d="M161.4,2951.6c-0.3,6.3,0,12.5,0,18.8a0.6,0.6,0,0,1-.9.1c-0.2-4.1-.1-8.3-0.1-12.4,0-2.3-.1-4.6,0-6.9C161,2950.9,161.2,2951.1,161.4,2951.6Z" transform="translate(-15.7 -2926)" style="fill: #4f2825"/>
    <path d="M213.5,3041.5a5.5,5.5,0,0,1-2.3,1l-0.2-.2c-0.7-1.2-1-2.5-.1-3.7s2.1-.5,2.6-1.6C213.1,3038.5,213.7,3040,213.5,3041.5Z" transform="translate(-15.7 -2926)" style="fill: #b33c2a"/>
    <path d="M110.6,3042.5a5.5,5.5,0,0,1-2.3-1,11.9,11.9,0,0,1,.3-3.6,6.2,6.2,0,0,1,2.3.7,3.1,3.1,0,0,1-.1,3.7Z" transform="translate(-15.7 -2926)" style="fill: #b33b29"/>
    <path d="M164.8,2963.4c0-3.9,0-3.9,3.9-3.8h1.4l-3.8,2.6c-0.5.3-1.1,0.5-1.1,1.2h-0.3Z" transform="translate(-15.7 -2926)" style="fill: #85241c"/>
    <path d="M160.5,2951.2v19.4c0.5,0.8.1,1.2-.6,1.4l-1,.2c1.5-1.3,1.3-3.1,1.3-4.8,0-4.8,0-9.7,0-14.5A2.4,2.4,0,0,1,160.5,2951.2Z" transform="translate(-15.7 -2926)" style="fill: #ea9383"/>
    <path d="M160,2972a3.6,3.6,0,0,0,.6-1.4l0.8-.2h0.1l1.2,1.6v0.3a0.9,0.9,0,0,1-.9,0h-0.3a1.1,1.1,0,0,1-.7.3,3.2,3.2,0,0,1-.7-0.7V2972Z" transform="translate(-15.7 -2926)" style="fill: #f6d6d0"/>
    <path d="M157.7,2973.8l-0.4-.4a1.8,1.8,0,0,1,1.4-.9A2.4,2.4,0,0,1,157.7,2973.8Z" transform="translate(-15.7 -2926)" style="fill: #e77560"/>
    <path d="M179.3,3093.4c-9.7,1-19.5.8-29.3,0.6a39.8,39.8,0,0,1-7.5-.6,2.6,2.6,0,0,1-.5-2.2c0.3-5.2.6-10.4,0.9-15.7,0.1-2.5.4-5,.3-7.5a1.5,1.5,0,0,1,.9-1.7c0.8,2.3,2.5,1.8,4.4,1.8,6.5-.1,12.9-0.9,19.4-0.1,2.5,0.3,5-.1,7.5.3a1.4,1.4,0,0,0,1.8-1.2,1.3,1.3,0,0,1,.5-0.8c1,0.2.9,1.1,0.9,1.8,0,5,.5,10,0.7,15.1,0.1,2.7.1,5.4,0.5,8A2.4,2.4,0,0,1,179.3,3093.4Z" transform="translate(-15.7 -2926)" style="fill: #9d2d1e"/>
    <path d="M126.6,3090.9a0.6,0.6,0,0,1-.7.4c-3.8-.8-7.7-1.5-11.4-3.1a2.2,2.2,0,0,1-.5-1.8c0.3-3.3.4-6.6,0.7-9.9s0.5-7.6.8-11.4c0.4-5.7.7-11.4,1.2-17.1,0.2-2.3.3-4.7,0.6-7,0.2-.8-0.2-1.8.5-2.5s1.1-.6,1.6.3a6,6,0,0,0,9.4,1.8c0.5-.4.9-1.3,1.7-0.3a6.8,6.8,0,0,1,.2,3.2c-0.6,7.7-1.1,15.4-1.6,23.1s-1.1,15.2-1.6,22.8A1.6,1.6,0,0,1,126.6,3090.9Z" transform="translate(-15.7 -2926)" style="fill: #e35136"/>
    <path d="M207.4,3088.3a56.7,56.7,0,0,1-12.1,3.2,2.6,2.6,0,0,1-.8-1.9c-0.1-3.6-.5-7.2-0.7-10.7-0.4-5.7-.8-11.4-1.2-17.1-0.2-3.7-.5-7.5-0.8-11.2-0.1-2.2-.2-4.4-0.5-6.6a7.8,7.8,0,0,1,.1-3.7c0.6-.9,1.1-0.2,1.5.2s4.2,1.7,6.5,1.3a4.2,4.2,0,0,0,3-2.8c0.4-1,1-1.2,1.7-.2a4.3,4.3,0,0,1,.4,2.1c0.6,4.9.7,9.8,1.2,14.7s0.8,11,1.2,16.5c0.3,3.7.6,7.4,0.8,11,0,0.9.1,1.7,0.2,2.6A3.4,3.4,0,0,1,207.4,3088.3Z" transform="translate(-15.7 -2926)" style="fill: #e35136"/>
    <path d="M191.8,3039.9c0.4,5.9.7,11.8,1.1,17.7q1.1,15.4,2.2,30.8l0.2,3.1a106.6,106.6,0,0,1-11.4,1.6c-1.1-1.3-.9-3-1-4.4-0.4-7.6-1.1-15.2-1.6-22.8-0.3-5.5-.8-11-1.1-16.5-0.1-2-.2-4-0.4-5.9a3.5,3.5,0,0,1,.1-1.9c0.5-.9,1.3-0.5,2-0.3a10.1,10.1,0,0,0,2.8.7,5.8,5.8,0,0,0,6-3.1,1,1,0,0,1,1-.3C192,3038.9,192.3,3039.3,191.8,3039.9Z" transform="translate(-15.7 -2926)" style="fill: #fefefe"/>
    <path d="M126.6,3090.9c0.5-6.5.9-13,1.4-19.4q1.1-15.3,2.1-30.5c0-.4,0-0.7,0-1.1a0.8,0.8,0,0,1,.2-1.4,1,1,0,0,1,1,.3c1.9,3.2,4.8,4.1,9.1,2.3,0.6-.2,1.2-0.7,1.7.1s0,4.6-.2,6.9-0.5,7.5-.8,11.2c-0.4,5.8-.8,11.5-1.2,17.3-0.3,3.8-.6,7.6-0.8,11.4-0.1,1.7.2,3.6-1,5.1l-10.2-1.3A1.1,1.1,0,0,1,126.6,3090.9Z" transform="translate(-15.7 -2926)" style="fill: #fefefe"/>
    <path d="M117.7,3040.5l-3.2,45.6c-0.1.7-.1,1.5-0.1,2.3s-2.4-1.3-3.8-1.7a2.7,2.7,0,0,1-1.3-.6l-1.7-1.4,3-42.2h0.1a1.7,1.7,0,0,1,1.6-.6,5.7,5.7,0,0,0,4.2-1.4C116.8,3040.3,117.3,3039.7,117.7,3040.5Z" transform="translate(-15.7 -2926)" style="fill: #fefefe"/>
    <path d="M207.4,3088.3l-3.2-46.2c0-.6,0-1.3,0-1.9h0.2a13.9,13.9,0,0,0,6.5,2,0.7,0.7,0,0,1,.4.3h0l3,42.2A23.6,23.6,0,0,1,207.4,3088.3Z" transform="translate(-15.7 -2926)" style="fill: #fefefe"/>
    <path d="M180.3,3041.2l2,29.4,1.5,22.5a31.4,31.4,0,0,1-4.6.4c-0.4-6.9-.8-13.7-1.2-20.6-0.1-1.4,0-2.9-.1-4.3a3.8,3.8,0,0,0-.3-2.2,1.8,1.8,0,0,1-.7-1.6c-0.3-3.4-.4-6.7-0.6-10.1s-0.5-7.6-.6-11.4c0.2-2,2-3.1,2.7-4.8s0.8-.6,1.2.1l0.8,1.7A1.1,1.1,0,0,1,180.3,3041.2Z" transform="translate(-15.7 -2926)" style="fill: #e35136"/>
    <path d="M137.9,3093.1l3.5-50.6c0-.5,0-1.1.1-1.6a0.8,0.8,0,0,1-.2-0.7c0.5-.7.4-2.1,1.4-2.1s1,1.2,1.5,1.9a8.7,8.7,0,0,1,1.7,2.3,51.7,51.7,0,0,1-.3,7.5c-0.2,3.1-.4,6.3-0.5,9.4s-0.4,3.8-.4,5.8a1.5,1.5,0,0,1-.6,1.4,2.3,2.3,0,0,0-.3,1.5c0,7.4-.9,14.7-1,22.1,0,1.2-.3,2.3-0.3,3.5A30.6,30.6,0,0,1,137.9,3093.1Z" transform="translate(-15.7 -2926)" style="fill: #e35136"/>
    <path d="M109.3,3086a1.8,1.8,0,0,1,1.3.6l-0.4.4A2,2,0,0,1,109.3,3086Z" transform="translate(-15.7 -2926)" style="fill: #949494"/>
    <path d="M225.8,3054.1h1.3c1.6-.2,2,0.4,2,2s-0.5,1.7-1.7,1.6h-3.1c-0.6,0-1.4.2-1.6-.6a4.4,4.4,0,0,1,0-2.5,0.9,0.9,0,0,1,1-.4h2.1Z" transform="translate(-15.7 -2926)" style="fill: #ebefef"/>
    <path d="M225.7,3063.7h-1.9c-0.7,0-1.2-.2-1.2-1.1s0.1-1.5,1.2-1.5h4.2c1,0,1.1.6,1.1,1.3s-0.2,1.3-1.1,1.2h-2.3Z" transform="translate(-15.7 -2926)" style="fill: #eaeded"/>
    <path d="M214.8,3057.6a12.8,12.8,0,0,1-.3-3.5h3.2c1.5-.1,1.3.9,1.3,1.8s0.2,1.9-1.3,1.8h-2.9Z" transform="translate(-15.7 -2926)" style="fill: #ebeeee"/>
    <path d="M215.2,3063.7v-1.9c0.9-1.4,2.2-.6,3.3-0.6s0.5,0.9.5,1.5a0.9,0.9,0,0,1-1.1,1h-2.7Z" transform="translate(-15.7 -2926)" style="fill: #e9eded"/>
    <path d="M95.5,3057.6H94.1c-1.6.2-2-.5-1.9-2s0.3-1.7,1.6-1.6h3a2,2,0,0,1,1.8,3.1,0.9,0.9,0,0,1-.9.4H95.5Z" transform="translate(-15.7 -2926)" style="fill: #ebefef"/>
    <path d="M107.3,3054.1a11.1,11.1,0,0,1-.3,3.5h-2.7c-2,0-2.6-.9-2.1-2.9a0.9,0.9,0,0,1,1.1-.7h4Z" transform="translate(-15.7 -2926)" style="fill: #ebeeee"/>
    <path d="M95.6,3061.2h1.8a1.1,1.1,0,0,1,1.3,1.3,1.1,1.1,0,0,1-1.3,1.3h-4c-1,0-1.2-.4-1.2-1.3s0.2-1.4,1.1-1.3h2.2Z" transform="translate(-15.7 -2926)" style="fill: #eaeded"/>
    <path d="M106.7,3062.2v1.6h-3.4c-0.5,0-1,0-1.1-.7a1.7,1.7,0,0,1,.4-1.7c0.4-.3,3.5-0.3,3.9,0A1.8,1.8,0,0,1,106.7,3062.2Z" transform="translate(-15.7 -2926)" style="fill: #e9ecec"/>
    <path d="M159.9,2972.2c0.5-.1.6,0.3,0.7,0.6a2.3,2.3,0,0,1,.4,2.1c-1.4,10.9-3,21.7-4.5,32.5-0.3,1.9-.6,3.8-0.8,5.7a2.8,2.8,0,0,1-1,2.1,2.6,2.6,0,0,1-1.4.3c-3.4-.1-6.8.3-10.1-0.2-1.1-.7-0.6-1.6-0.3-2.4,1.1-3.1,2.4-6.1,3.7-9.1,3.7-8.7,7.1-17.5,10.7-26.2a26.4,26.4,0,0,1,2.3-4.6Z" transform="translate(-15.7 -2926)" style="fill: #fefefe"/>
    <path d="M159.6,2973.1a10.4,10.4,0,0,1-1.2,3.3L144,3011.7c-0.4,1.1-.8,2.2-1.1,3.3a2.8,2.8,0,0,1,.6,2.1q0,7.2,0,14.4a2.9,2.9,0,0,1-.4,1.8,0.5,0.5,0,0,1-.6.2,3.1,3.1,0,0,1-.6-2.4c0-4.4,0-8.9,0-13.3,0-1.9-.2-2-2-2h-6.9a3.6,3.6,0,0,1-2.2-.4l-0.2-.2,15.3-22.3,12.6-18.5C158.7,2973.8,158.9,2973.2,159.6,2973.1Z" transform="translate(-15.7 -2926)" style="fill: #e35136"/>
    <path d="M118.3,3033.4v-18.3l0.3-.3c1.6,0.5,3.2.2,4.7,0.2h6.9a2.6,2.6,0,0,1,.5,2.1q0,6,0,12.1a9.4,9.4,0,0,0,.3,2.6,5,5,0,0,1,0,2c-0.1.5-.5,1-0.6,1.5a6,6,0,0,1-5.8,3.8C120.9,3039.2,118.8,3037.2,118.3,3033.4Z" transform="translate(-15.7 -2926)" style="fill: silver"/>
    <path d="M130.5,3032.1a2.7,2.7,0,0,1-.2-1.7q0-7.7,0-15.4h0.5a3.1,3.1,0,0,1,.5,2c0,4.3,0,8.6,0,13A2.3,2.3,0,0,1,130.5,3032.1Z" transform="translate(-15.7 -2926)" style="fill: #d0d0d0"/>
    <path d="M161.2,2971.8h0.4a8.1,8.1,0,0,0,.9,1.3v0.2a121.7,121.7,0,0,1,5.6,13.1c2.7,6.8,5.6,13.6,8.3,20.4,0.9,2.1,1.8,4.2,2.5,6.4s0.6,1.6-.4,2.1a44.1,44.1,0,0,1-11.5-.1,3,3,0,0,1-1-2.3c-1.1-8.2-2.3-16.3-3.4-24.5-0.6-4.8-1.6-9.6-1.8-14.5A8.3,8.3,0,0,1,161.2,2971.8Z" transform="translate(-15.7 -2926)" style="fill: #fefefe"/>
    <path d="M179,3015c-1.9-6-4.6-11.7-6.9-17.5-3.1-7.8-6.3-15.5-9.4-23.3-0.1-.3-0.6-0.6-0.1-1a2.6,2.6,0,0,1,1.2,1.3c2.7,3.9,5.5,7.7,8.1,11.7,5.5,8.6,11.6,16.9,17.3,25.4a24.6,24.6,0,0,0,2.2,3.4l-0.2.2a3.9,3.9,0,0,1-2.3.4h-6.9c-1.7,0-1.8.2-1.8,1.9,0,4.5,0,8.9,0,13.4a3.4,3.4,0,0,1-.5,2.5,0.4,0.4,0,0,1-.6,0,3,3,0,0,1-.5-2.1q0-7,0-14A3,3,0,0,1,179,3015Z" transform="translate(-15.7 -2926)" style="fill: #e35136"/>
    <path d="M203.5,3015.1v18.3c-0.5,4.4-3.9,6.7-8.3,5.5-1.9-.5-2.9-1.9-3.8-3.5s-0.5-1-.6-1.5a5,5,0,0,1,0-2,11.5,11.5,0,0,0,.3-3.4c0-3.8,0-7.6,0-11.5a2.4,2.4,0,0,1,.5-2h11.9Z" transform="translate(-15.7 -2926)" style="fill: silver"/>
    <path d="M191.6,3015.1q0,7.7,0,15.4a2.7,2.7,0,0,1-.2,1.7,2.1,2.1,0,0,1-.7-2c0-4.4,0-8.9,0-13.3a3,3,0,0,1,.5-1.8h0.5Z" transform="translate(-15.7 -2926)" style="fill: #d0d0d0"/>
    <path d="M162.5,2973.2c-0.8-.1-0.8-0.7-0.9-1.3l0.9,0.6v0.7Z" transform="translate(-15.7 -2926)" style="fill: #ee9382"/>
    <path d="M118.3,3033.4c1,3.7,3.4,5.4,6.7,5.2a5.8,5.8,0,0,0,4.9-3.4c1.1,0.3.8,1.1,0.8,1.9a2.6,2.6,0,0,1-.5,1.6,1.3,1.3,0,0,0-.3,1.3c-1.8,2.8-4.6,2.9-7.4,2.5a4.4,4.4,0,0,1-3.8-3.5c-0.2-.8-0.5-0.3-0.8-0.3s-0.1-2.1-.3-3.2A4.3,4.3,0,0,0,118.3,3033.4Z" transform="translate(-15.7 -2926)" style="fill: #b23927"/>
    <path d="M117.7,3035.4c0.7,1,.1,2.2.3,3.2s0.1,1.3-.2,1.9h-0.1c-1.9,2.1-4.3,2.3-6.9,2.1l0.2-3.9C113.8,3038.7,116.3,3038.3,117.7,3035.4Z" transform="translate(-15.7 -2926)" style="fill: #bf8f8b"/>
    <path d="M191.8,3035.1c2.1,3.7,4.6,4.1,8.1,3s3.1-2.6,3.6-4.7c-0.1.8,0.6,1.2,0.7,2s0.8,2.4-.2,3.6-0.3-1.4-.8-0.1a6.4,6.4,0,0,1-10.9,1.5l-0.4-.5-0.3-1.3c-0.6-.5-0.4-1.3-0.5-1.9S190.9,3035.3,191.8,3035.1Z" transform="translate(-15.7 -2926)" style="fill: #b23927"/>
    <path d="M203.9,3038.9c0.1-1.2-.4-2.4.2-3.6,1.4,2.9,3.9,3.4,6.8,3.2l0.3,3.9c-2.7.2-5.2,0.1-7-2.3C203.8,3039.8,204.4,3039.3,203.9,3038.9Z" transform="translate(-15.7 -2926)" style="fill: #bf8f8b"/>
    <path d="M161.2,2971.8c0.8,6.1,1.6,12.2,2.4,18.3q1.6,11.8,3.2,23.6c0.1,0.4.2,0.8,0.3,1.3a2.6,2.6,0,0,1,.6,1.9q0,5,0,10.1a2.5,2.5,0,0,1-.5,1.8c-1.4,0-1-1.1-1.1-1.8-0.1-2.6,0-5.1,0-7.7,0-.4,0-0.9,0-1.3,0-2.2-.1-2.3-2.2-2.3h-6c-2,0-2.1.1-2.1,2.1,0,4.4,0,8.8,0,13.2,0,0.8.3,1.9-1,2.1a2.7,2.7,0,0,1-.6-2.1q0-6.8,0-13.7a3,3,0,0,1,.6-2.3c0.8-5.8,1.7-11.7,2.5-17.5q1.7-11.8,3.3-23.6c0.1-.4.1-0.7,0.1-1.1Z" transform="translate(-15.7 -2926)" style="fill: #e35136"/>
    <path d="M144.1,3066.3l1.3-22.4c0-.7,0-1.4,0-2.1s-1-2.6.3-3.8a2.7,2.7,0,0,1,1.7-.1,5.7,5.7,0,0,0,6.5-3,2,2,0,0,1,.9-0.9c0.9-.1,1,0.7,1.3,1.2s2.2,2.8,4.3,2.9a5.6,5.6,0,0,0,5.4-2.8,4.9,4.9,0,0,1,.9-1.3h0.5a2.5,2.5,0,0,1,1,1.2,5.5,5.5,0,0,0,5.9,2.8,4.2,4.2,0,0,1,1.9-.1c1.2,0.7,1.1,1.8.9,2.8s-0.2,1.4-.4,2l1.3,23.5c-0.1,2.9-.3,3-3.2,2.5l-1.1-.2c-5.6,0-11.2-.7-16.8-0.3-3.3.3-6.6,0-9.9,0.5S144.2,3069.1,144.1,3066.3Z" transform="translate(-15.7 -2926)" style="fill: #6b1912"/>
    <path d="M191.8,3035.1c-0.5.4-.2,1-0.3,1.5s0,1.6-.6,2.3c-1.4,3.5-5.5,4.8-9.1,2.9-0.5-.3-0.9-0.8-1.6-0.7v-1c-0.3-1.4-1.4-2.7-.3-4.2s1.3,0.4,1.8.8a5.5,5.5,0,0,0,8.2-1.3c0.4-.6.6-1.3,1.4-1.5A1.8,1.8,0,0,1,191.8,3035.1Z" transform="translate(-15.7 -2926)" style="fill: #bf8f8b"/>
    <path d="M190.9,3038.9l0.6-2.3v1.9Z" transform="translate(-15.7 -2926)" style="fill: #d1aeab"/>
    <path d="M130.3,3037c-0.2-.6.2-1.3-0.3-1.9a1.7,1.7,0,0,1,.6-1.1c0.8-.1.9,0.6,1.2,1.1a5.4,5.4,0,0,0,8.5,1.6c0.5-.4.9-0.9,1.7-0.7s0.1,2.8-.2,4.2v0.7a7.7,7.7,0,0,1-5.5,1.7,5.2,5.2,0,0,1-5.1-3.6A3.7,3.7,0,0,1,130.3,3037Z" transform="translate(-15.7 -2926)" style="fill: #bf8f8b"/>
    <path d="M130.3,3037l0.6,1.9-0.6-.3V3037Z" transform="translate(-15.7 -2926)" style="fill: #d9bcb9"/>
    <path d="M180.3,3036c-0.8,1.4.1,2.8-.1,4.2-0.7-.4-0.6-1.3-1.2-2.1,0,2.2-2.1,3-2.5,4.7,0-1,0-2-.1-3.1s0.1-1.2-.6-1.5a0.3,0.3,0,0,1,0-.3,48.2,48.2,0,0,0,3.4-4.5h0.2A2.9,2.9,0,0,1,180.3,3036Z" transform="translate(-15.7 -2926)" style="fill: #b33a28"/>
    <path d="M141.6,3040.2c-0.1-1.4.7-2.8-.1-4.1a3,3,0,0,1,1-2.6h0.2c0.9,1.7,2.5,3,3.3,4.8-1.2,1-.3,2.4-0.7,3.6a6.6,6.6,0,0,1-2.6-3.6C142.2,3038.8,142.4,3039.8,141.6,3040.2Z" transform="translate(-15.7 -2926)" style="fill: #b33a28"/>
    <path d="M146,3038.2c-1.6-1.3-3.1-2.6-3.3-4.8q0-8.2,0-16.5c0-.6.1-1.3,0.1-1.9h11.9v18a0.7,0.7,0,0,1-.1,1C153,3038.3,150.5,3039.2,146,3038.2Z" transform="translate(-15.7 -2926)" style="fill: silver"/>
    <path d="M142.5,3033.4a3.9,3.9,0,0,1-1,2.6c-2.5,4-9.1,3.3-10.7-1.4l-0.3-.5v-1.9q0-7.7.1-15.4c0-.6.1-1.2,0.1-1.7h10.2c1.3,0,1.7.3,1.7,1.6C142.5,3022.2,142.5,3027.8,142.5,3033.4Z" transform="translate(-15.7 -2926)" style="fill: #b13424"/>
    <path d="M179.1,3033.4c-0.2,2.2-1.7,3.5-3.3,4.8l-1.7.3c-3.4.3-5.3-.5-7-4.5-0.9-1.5-.3-3.1-0.4-4.7l0.3-.5V3015H179q0.1,7.9.1,15.8C179.1,3031.7,179.1,3032.5,179.1,3033.4Z" transform="translate(-15.7 -2926)" style="fill: silver"/>
    <path d="M180.3,3036a3.9,3.9,0,0,1-1-2.6c0-5.6.1-11.2,0-16.8,0-1.3.4-1.7,1.7-1.6h10.2c0.3,3.4.1,6.8,0.1,10.2s0.1,4.6.1,6.9v1.9c-1.2,2.9-3.2,4.8-6.7,4.5A5.6,5.6,0,0,1,180.3,3036Z" transform="translate(-15.7 -2926)" style="fill: #b13424"/>
    <path d="M166.9,3028.9v0.4c-0.3,1.6.1,3.2-.2,4.8a5.4,5.4,0,0,1-3.9,4.2c-2.1.5-4.3,0.7-6-1.3a14,14,0,0,1-2.1-3v-1a2.6,2.6,0,0,0,.2-1.7c0-4.9,0-9.8,0-14.7,0-1.3.4-1.7,1.7-1.6h8.5a1.2,1.2,0,0,1,1.5,1.5c-0.1,3.5,0,7.1,0,10.6A3,3,0,0,0,166.9,3028.9Z" transform="translate(-15.7 -2926)" style="fill: #b13424"/>
    <path d="M166.7,3034.1c0.1-1.6-.3-3.3.2-4.8v4.8h-0.3Z" transform="translate(-15.7 -2926)" style="fill: #9c2c1f"/>
  </g>
</svg>
