<svg id="c6f7d6df-4489-4f72-acab-0d90d7541c5b" data-name="Pagina Movil" xmlns="http://www.w3.org/2000/svg" viewBox="0 0 290.4 212.7">
  <title>proyecto6</title>
  <g id="9f9e3af7-4248-4491-9676-2ba4529579e5" data-name="proyecto 6">
    <path d="M159.6,3373.6H14.6q0.1-106.3,0-212.7H305q-0.1,106.3,0,212.7H159.6Z" transform="translate(-14.6 -3160.9)" style="fill: #1d82c0"/>
    <path d="M206.6,3198.4a74.4,74.4,0,0,1,15.9,14.2,81.4,81.4,0,0,1,17.4,34.1,84.4,84.4,0,0,1-2.6,49.5A85.6,85.6,0,0,1,223,3321c-9.9,12.3-22.6,20.3-37.3,25.6a76.6,76.6,0,0,1-48.8,1.1c-15-4.5-28.2-12.4-38.5-24.4A83.7,83.7,0,0,1,83.3,3299a84.7,84.7,0,0,1,5.4-74.5c5.9-10.4,14.1-18.7,23.6-25.8,22.6-17,55.8-20.1,82.2-7.6l0.8,0.5a1.3,1.3,0,0,1-.8,1.4c-3.6,2.8-4.9,6.6-5,11s1.1,9.8,1.8,14.7a32.6,32.6,0,0,1,.1,5.9,2.9,2.9,0,0,1-.3,1.1c-0.4.9-.8,2-1.9,2.2s-1.7-.9-2.3-1.7-2.3-4.4-3.9-6.3a14.1,14.1,0,0,0-7.2-4.5,17,17,0,0,0-6.7-.3,11.5,11.5,0,0,0-9.9,8.1c-2.1,5.8-1.9,11.8-.8,17.8l0.7,3.5a1.6,1.6,0,0,1-.1,1.5,19.7,19.7,0,0,1-2.8,1.4c-1.7.3-3.4-.5-5.1-0.4-8.1.2-16.2-.4-24.3-0.4a21.4,21.4,0,0,0-11.8,3.6,4.8,4.8,0,0,0-1.7,1.7,9.6,9.6,0,0,1-2.2,2.5c-3.4,3.2-5.4,7.3-6.8,11.7a11.6,11.6,0,0,0-.3,2.2c0.1,4.7-.3,9.3,1.3,13.9a23.8,23.8,0,0,0,11,13.2,21.2,21.2,0,0,0,15.8,2.5,26.1,26.1,0,0,0,9.6-4.8,4.5,4.5,0,0,1,2.8-1h31.9a5.4,5.4,0,0,1,3.4,1.3,24.6,24.6,0,0,0,8.1,4.2c7.5,2.1,14.3.2,20.2-4.5a22,22,0,0,0,8.7-18.1,24.1,24.1,0,0,0-.1-4.2c0.9-7.5-3.1-12.7-8-17.6a3.8,3.8,0,0,1-1-1.3,3.6,3.6,0,0,0-1.3-1.4c-3.5-2.2-7.1-3.9-11.4-3.9-8.5-.1-16.9.6-25.4,0.4-1.7,0-3.3.7-4.9,0.4a24.6,24.6,0,0,0-2.8-1.2c-0.9-.9-1-2.1-1.2-3.2-1.1-5-1.7-9.9-1-15a19.3,19.3,0,0,1,1.8-5.5c2.2-4.4,6.5-5.7,10.6-5.6a11.6,11.6,0,0,1,10.6,6.5,49.4,49.4,0,0,0,3,4.8c2,2.8,4.4,2.8,6.3,0a10.2,10.2,0,0,0,1.5-6.8c-0.3-4.1-1.5-8-1.9-12.1s-0.7-7.6,1.1-11.2a7.4,7.4,0,0,1,3.1-3.4,3.8,3.8,0,0,1,3.8-.1C202,3195.8,204.4,3196.9,206.6,3198.4Z" transform="translate(-14.6 -3160.9)" style="fill: #e17b3e"/>
    <path d="M206.6,3198.4c-1.4-.1-2.4-1-3.6-1.5s-1.7-.9-2.6-1.3c-2.8-1.4-5.3-.4-6.6,2.5s-1.6,7.1-1.2,10.7,1.6,8,2,12.1a15.4,15.4,0,0,1-.5,5.6,7.7,7.7,0,0,1-1.6,2.9c-2.3,2.6-4.8,2.6-6.8-.2a62.2,62.2,0,0,1-3.7-6c-3.4-6-13.1-7.5-17.8-2.5-2.6,2.7-3.3,6.4-3.5,10a46.4,46.4,0,0,0,2,15.3c0.7,0.9.4,1.7-.4,2.4a2,2,0,0,1-2.6.2c-0.9-.6-1.5-1.5-0.8-2.6a50.7,50.7,0,0,1-1.8-14.8,24.6,24.6,0,0,1,2.1-9.4c3.3-6.8,11.7-9.5,19.3-6.3a15.9,15.9,0,0,1,7.8,7.6c0.7,1.3,1.5,2.6,2.2,3.9s0.9,0.7,1.4,0a5.9,5.9,0,0,0,1.1-3.6c0.1-3.9-.9-7.7-1.5-11.5a37.4,37.4,0,0,1-.5-8.8c0.4-4.8,2.2-8.8,6.6-11.3a65.8,65.8,0,0,1,10.5,5.9A1.5,1.5,0,0,1,206.6,3198.4Z" transform="translate(-14.6 -3160.9)" style="fill: #575655"/>
    <path d="M217.9,3270.7c0.7,8.2-1.1,15.5-7.1,21.4a30.4,30.4,0,0,1-7.2,4.9c-5.1,2.8-10.5,2.8-15.9,1.4a23.4,23.4,0,0,1-8.4-4.5,4.1,4.1,0,0,0-2.8-.9H145a4.4,4.4,0,0,0-2.9,1c-6.6,5.1-13.9,6.7-21.9,4.2a24.8,24.8,0,0,1-16.8-23.8c0.1-2.1-.4-4.2.3-6.2s1.1-4,2.2-5.8c4.3-7.1,10.5-11.6,18.9-12.4s19-.5,28.5-0.3c12.3,0.3,24.6-.4,36.9-0.1,4.6,0.1,9.3.2,13.6,2.2,7.9,3.7,13.1,9.5,13.9,18.5A1.1,1.1,0,0,0,217.9,3270.7Z" transform="translate(-14.6 -3160.9)" style="fill: #e7e5e3"/>
    <path d="M217.9,3270.7c-0.9-2.3-1.3-4.7-2.5-7-4.1-7.8-10.5-12.3-19.2-13s-19-.4-28.5-0.2c-4.9.1-9.7,0.1-14.6,0-8.2-.2-16.3-0.1-24.5,0-9.8.1-17.4,4.2-22.3,12.8a23.1,23.1,0,0,0-2.4,6.6l-0.2-1.7c0.7-6.7,3.9-12,9.1-16.1,3.9-2.3,7.7-4.7,12.5-4.6,8.9,0.2,17.7-1.2,26.6-.7h4a9.4,9.4,0,0,1,2.8-.8l0.2,0.4c0.4,0.9.7,2,1.9,1.9s1.6-1.1,1.7-2.2a6.3,6.3,0,0,1,2.9.8c5.2,0.1,10.5-.4,15.6.1s11,0.4,16.5.6a14.8,14.8,0,0,1,5.3,1.4,36.2,36.2,0,0,1,5.8,3.1C214.6,3256.7,217.9,3262.9,217.9,3270.7Z" transform="translate(-14.6 -3160.9)" style="fill: #efedeb"/>
    <path d="M155.8,3246.6H140.2a2.4,2.4,0,0,0-2.3.8,1.9,1.9,0,0,1-1.8.5c-2.9,0-5.8.1-8.7,0a20.5,20.5,0,0,0-12.2,3.4,2.5,2.5,0,0,1-2.6.5c-0.5-.7-0.1-1.1.5-1.4,3.9-2.8,8.1-4.8,13.1-4.7a42.5,42.5,0,0,0,5.6,0c4-.4,7.9,1,11.9.8S151.8,3246.6,155.8,3246.6Z" transform="translate(-14.6 -3160.9)" style="fill: #9a9897"/>
    <path d="M208.5,3251.9a2.2,2.2,0,0,1-2.3-.3,20.7,20.7,0,0,0-12.8-3.6c-2.3.1-4.6,0-6.9,0s-2.8.2-3.9-1.1-1.1-.3-1.7-0.3H165.4c5.1,0,10.2.4,15.1-.2s10-.6,15-0.6,8.8,2,12.6,4.7C208.6,3250.8,209,3251.2,208.5,3251.9Z" transform="translate(-14.6 -3160.9)" style="fill: #9a9897"/>
    <path d="M215.3,3275a21,21,0,1,1-42,.3c0-12.1,9.1-21.5,20.8-21.5A20.8,20.8,0,0,1,215.3,3275Z" transform="translate(-14.6 -3160.9)" style="fill: #989695"/>
    <path d="M114.9,3274.5a12.4,12.4,0,0,1,12.6-12.6,12.6,12.6,0,0,1,12.6,12.8,12.7,12.7,0,0,1-12.6,12.7A12.5,12.5,0,0,1,114.9,3274.5Z" transform="translate(-14.6 -3160.9)" style="fill: #d0cecc"/>
    <path d="M162.1,3260.2H151.8c-0.6,0-1.4.3-1.4-.8s0.9-.6,1.3-0.6h20.6c0.5,0,1.3-.4,1.4.6s-0.7.8-1.3,0.8H162.1Z" transform="translate(-14.6 -3160.9)" style="fill: #615f5f"/>
    <path d="M150.4,3279.3a17.3,17.3,0,0,1,3.2-3.2,1.8,1.8,0,0,1,1.3-.8,1.4,1.4,0,0,1,1.4.8,1.1,1.1,0,0,1-.3,1.6c-1.5,1.4-2.9,3-4.4,4.3a1.8,1.8,0,0,1-1.7-.5A1.9,1.9,0,0,1,150.4,3279.3Z" transform="translate(-14.6 -3160.9)" style="fill: #989695"/>
    <path d="M163.4,3282.2H162a2.6,2.6,0,0,1-.7-1.9,23.1,23.1,0,0,1,4.4-4.6,1.3,1.3,0,0,1,2,.1,1.4,1.4,0,0,1-.2,2.1C166.1,3279.4,164.6,3280.7,163.4,3282.2Z" transform="translate(-14.6 -3160.9)" style="fill: #979595"/>
    <path d="M163.4,3282.2c0.5-1.5,2-2.2,2.9-3.4l1.1-1.2a1.1,1.1,0,0,0,0-1.7,1.1,1.1,0,0,0-1.7,0l-4.3,4.4c-0.2,0-.2-0.2-0.3-0.4a30,30,0,0,1,4.4-4.6,1.5,1.5,0,0,1,2.3.2,1.5,1.5,0,0,1,0,2.3A37.8,37.8,0,0,1,163.4,3282.2Z" transform="translate(-14.6 -3160.9)" style="fill: #676565"/>
    <path d="M165.9,3257.1c-0.8.2-1.6,0.5-2.1-.5a2.4,2.4,0,0,1,.6-2.6,1.1,1.1,0,0,1,1.9.2,1.6,1.6,0,0,0-1.9,1.7,0.6,0.6,0,0,0,.5.7c0.5,0,.4-0.4.3-0.7s-0.1-.6.3-0.7,0.7,0.1.6,0.6S166.4,3256.7,165.9,3257.1Z" transform="translate(-14.6 -3160.9)" style="fill: #706e6e"/>
    <path d="M162.4,3257.2c-1-.3-0.8-1-1.2-1.3s-0.1,1-.9,1.1a8.5,8.5,0,0,1,.3-2.9c0.1-.9.8-0.7,1.3-0.6a0.8,0.8,0,0,1,.6,1.2A2.2,2.2,0,0,0,162.4,3257.2Z" transform="translate(-14.6 -3160.9)" style="fill: #686666"/>
    <path d="M166.5,3256.1c0.6-.8.5-2.7,1.6-2.3s0.3,2.1.5,3.8c-0.9-1.5-1.6-.7-2.3-0.4S166.2,3256.4,166.5,3256.1Z" transform="translate(-14.6 -3160.9)" style="fill: #636161"/>
    <path d="M151.6,3281.9l3.5-3.5c0.6-.6,1.5-1.3.8-2.3s-1.5-.3-2.3.1a1.4,1.4,0,0,1,2.4-.7,1.5,1.5,0,0,1,.2,2.6,38,38,0,0,1-4.2,4A0.3,0.3,0,0,1,151.6,3281.9Z" transform="translate(-14.6 -3160.9)" style="fill: #696767"/>
    <path d="M153.4,3253.6c0.7-.1.6,0.4,0.5,0.8a4.6,4.6,0,0,0-.1,2.3c1.3-.9.6-2.3,1.3-3.1,0.4,1.4.2,3-.5,3.4a1.2,1.2,0,0,1-1.7-.2A2.3,2.3,0,0,1,153.4,3253.6Z" transform="translate(-14.6 -3160.9)" style="fill: #656363"/>
    <path d="M160.1,3257c-1.1.2-1.9,0.4-2-.1a7.1,7.1,0,0,1,.4-3c0.2-.6.9-0.3,2-0.1-1.4.4-1.7,0.9-.9,1.7C158.6,3255.9,158.4,3256.4,160.1,3257Z" transform="translate(-14.6 -3160.9)" style="fill: #676565"/>
    <path d="M152.4,3256.8a1.5,1.5,0,0,1-2.2,0c1.8-.1,1.6-0.6.8-1.7s0.2-1.5,1.7-1.5A9.1,9.1,0,0,1,152.4,3256.8Z" transform="translate(-14.6 -3160.9)" style="fill: #727070"/>
    <path d="M174.4,3257c-0.7.1-1.5,0.4-1.6-.1a5.2,5.2,0,0,1,.4-2.9c0.2-.7.9-0.3,1.6-0.3C173.7,3254.5,173.5,3256.3,174.4,3257Z" transform="translate(-14.6 -3160.9)" style="fill: #676565"/>
    <path d="M148.2,3257.5a2.2,2.2,0,0,1-1.4.3,1.6,1.6,0,0,1-2.2-2.2,2.1,2.1,0,0,1,.3-1.4,10.9,10.9,0,0,1,2,1.6h0A4.9,4.9,0,0,1,148.2,3257.5Z" transform="translate(-14.6 -3160.9)" style="fill: #dad8d6"/>
    <path d="M156,3257.2c-0.6-1.2-.1-2.2.1-3.3a0.5,0.5,0,0,1,.8-0.3c0.4,0.2,1,.1,1,0.8a0.9,0.9,0,0,1-.4,1.1A2,2,0,0,0,156,3257.2Z" transform="translate(-14.6 -3160.9)" style="fill: #6b6969"/>
    <path d="M169.2,3255.5a0.5,0.5,0,0,1,0-.2c0.2-.6-0.1-1.7.7-1.7s0.4,1.1.6,1.6l0.3,0.2c0.3,0,.4.1,0.3,0.4s-0.1,1.3-1,1.2a2,2,0,0,1-.6-0.8Z" transform="translate(-14.6 -3160.9)" style="fill: #615f5f"/>
    <path d="M144.9,3257.8a1.3,1.3,0,0,1,1.9,0c0.2,0.9,0,1.6-1,1.6s-1.1-.8-0.8-1.6h0Z" transform="translate(-14.6 -3160.9)" style="fill: #626060"/>
    <path d="M144.9,3257.8h-0.4c-0.8,0-1.5-.1-1.4-1.1s0.8-1.1,1.5-.9S144.9,3257,144.9,3257.8Z" transform="translate(-14.6 -3160.9)" style="fill: #615f5f"/>
    <path d="M171.1,3255.9l-0.3-.4c0.5-.6.3-2.1,1.3-1.8s0.1,1.5,0,2.3a1,1,0,0,1-.4,1.1C171.1,3256.9,171.7,3256.1,171.1,3255.9Z" transform="translate(-14.6 -3160.9)" style="fill: #686666"/>
    <path d="M146.9,3255.8c-1-.1-2.4.2-2-1.6S146.8,3253.7,146.9,3255.8Z" transform="translate(-14.6 -3160.9)" style="fill: #636161"/>
    <path d="M148.2,3257.5c-1.3.1-2.1-.2-1.3-1.7a1,1,0,0,1,1.5.2A1.2,1.2,0,0,1,148.2,3257.5Z" transform="translate(-14.6 -3160.9)" style="fill: #626060"/>
    <path d="M152.4,3256.8a3.5,3.5,0,0,0,0-.6,8.9,8.9,0,0,1,.2-2.6h0.7a13.4,13.4,0,0,0-.4,3.2h-0.5Z" transform="translate(-14.6 -3160.9)" style="fill: #dcdad9"/>
    <path d="M150.4,3279.3a4.5,4.5,0,0,0-.2,2.3,0.2,0.2,0,0,1-.3,0C149.2,3280.6,149.2,3279.8,150.4,3279.3Z" transform="translate(-14.6 -3160.9)" style="fill: #716f6e"/>
    <path d="M161.2,3280l0.3,0.4,0.6,1.9A1.6,1.6,0,0,1,161.2,3280Z" transform="translate(-14.6 -3160.9)" style="fill: #5e5c5c"/>
    <path d="M149.9,3281.6h0.3l1.5,0.3h0.5A1.5,1.5,0,0,1,149.9,3281.6Z" transform="translate(-14.6 -3160.9)" style="fill: #716f6f"/>
    <path d="M169.2,3255.5l0.6,0.6a1.1,1.1,0,0,1-.3,1C168.4,3256.7,169.3,3256,169.2,3255.5Z" transform="translate(-14.6 -3160.9)" style="fill: #5c5a5a"/>
    <path d="M169.4,3257.1a1.1,1.1,0,0,1,.3-1,1.1,1.1,0,0,1,.3,1h-0.7Z" transform="translate(-14.6 -3160.9)" style="fill: #c9c7c6"/>
    <path d="M166.5,3256.1l-0.3,1h-0.3a2,2,0,0,1,.3-1.3Z" transform="translate(-14.6 -3160.9)" style="fill: #afadac"/>
    <path d="M183.6,3280.7a5.5,5.5,0,0,1-5.5-3.9,5.6,5.6,0,0,1,2-6.3l11.6-8.4a5.2,5.2,0,0,1,7.5,1.2,5.4,5.4,0,0,1-1.2,7.5c-3.8,3.1-7.8,5.9-11.7,8.8A4.2,4.2,0,0,1,183.6,3280.7Z" transform="translate(-14.6 -3160.9)" style="fill: #e7e5e3"/>
    <path d="M210.8,3274.5c0,2.4-.5,3.7-2,4.8l-12,8.7a5.4,5.4,0,0,1-6.3-8.7l5.5-4c2-1.5,4-3,5.9-4.6a5.1,5.1,0,0,1,6-.7A5.2,5.2,0,0,1,210.8,3274.5Z" transform="translate(-14.6 -3160.9)" style="fill: #e7e5e3"/>
    <path d="M122.7,3271.3a1.5,1.5,0,0,0,.9-1.6c0-.7,0-1.5,0-2.2s0.5-2.1,1.9-2h4.2a1.5,1.5,0,0,1,1.7,1.7c0,0.9,0,1.7,0,2.6a1.4,1.4,0,0,0,1,1.5,0.4,0.4,0,0,1-.1.5c-1.2.6-1.7,0-1.9-1.1a2.4,2.4,0,0,1-.1-0.6c0.2-3-1.9-3.1-4.3-2.7a1.6,1.6,0,0,0-1.2,1.6c-0.1.6,0,1.2-.1,1.8s-0.8,1.7-1.9,1.1A0.4,0.4,0,0,1,122.7,3271.3Z" transform="translate(-14.6 -3160.9)" style="fill: #5f5d5d"/>
    <path d="M132,3279.6c-1.1,1-.5,2.3-0.6,3.5s-0.2,2.2-2.2,2.2h-4a1.5,1.5,0,0,1-1.6-1.7c-0.1-1.3.5-2.8-.5-4s0.5-.6,1-0.5,0.7,1.5.7,2.3,0.7,2.3,2.7,2.3,2.6-.4,2.8-2.2-0.2-1.8.7-2.4S131.9,3279,132,3279.6Z" transform="translate(-14.6 -3160.9)" style="fill: #626060"/>
    <path d="M136.6,3271.6a1.4,1.4,0,0,1,.6,1.4c0,1.7,0,3.3,0,5a1.2,1.2,0,0,1-.9,1.5,0.6,0.6,0,0,1-.9-0.3c0.2-2.4-.1-4.8.3-7.2A0.6,0.6,0,0,1,136.6,3271.6Z" transform="translate(-14.6 -3160.9)" style="fill: #5f5d5d"/>
    <path d="M118.7,3279.4a1,1,0,0,1-.9-1c0-2,0-4.1,0-6.1a0.9,0.9,0,0,1,.6-0.7,0.8,0.8,0,0,1,1,.2c0.4,2.4.1,4.9,0.2,7.3A0.7,0.7,0,0,1,118.7,3279.4Z" transform="translate(-14.6 -3160.9)" style="fill: #626060"/>
    <path d="M118.7,3279.4l0.7-.3c1.4-1.3,3.8-1.1,4.5.3l-0.9.3C121.6,3279.4,120.1,3279.8,118.7,3279.4Z" transform="translate(-14.6 -3160.9)" style="fill: #6b6969"/>
    <path d="M135.6,3279.1l0.7,0.3c-1.4.4-2.9,0-4.3,0.2l-0.9-.3C131.8,3278,134.2,3277.8,135.6,3279.1Z" transform="translate(-14.6 -3160.9)" style="fill: #6b6969"/>
    <path d="M136.6,3271.6l-0.7.4a2.8,2.8,0,0,1-3.5-.3v-0.3C133.8,3271.4,135.2,3271,136.6,3271.6Z" transform="translate(-14.6 -3160.9)" style="fill: #797777"/>
    <path d="M119.1,3271.9l-0.7-.4c1.4-.5,2.9-0.2,4.3-0.2v0.3C121.6,3272.8,120.4,3272.5,119.1,3271.9Z" transform="translate(-14.6 -3160.9)" style="fill: #797777"/>
    <path d="M161.5,3255.1a0.3,0.3,0,0,1-.2-0.5,0.7,0.7,0,0,1,.4-0.4,0.3,0.3,0,0,1,.4.4A0.5,0.5,0,0,1,161.5,3255.1Z" transform="translate(-14.6 -3160.9)" style="fill: #c8c6c5"/>
    <path d="M157,3255.1c-0.3,0-.4-0.1-0.4-0.3a0.7,0.7,0,0,1,.3-0.5c0.2-.1.4,0.1,0.4,0.4A0.4,0.4,0,0,1,157,3255.1Z" transform="translate(-14.6 -3160.9)" style="fill: #c6c4c3"/>
    <path d="M183.3,3270.9a4.2,4.2,0,0,1-.1,8.3A4.2,4.2,0,0,1,183.3,3270.9Z" transform="translate(-14.6 -3160.9)" style="fill: #45b29c"/>
    <path d="M194.8,3262.4a4,4,0,0,1,.1,8A4,4,0,1,1,194.8,3262.4Z" transform="translate(-14.6 -3160.9)" style="fill: #238ab3"/>
    <path d="M205.5,3279.1a4,4,0,0,1-4-4,4.1,4.1,0,0,1,4.1-4.4,4.1,4.1,0,0,1,3.9,4.4A3.9,3.9,0,0,1,205.5,3279.1Z" transform="translate(-14.6 -3160.9)" style="fill: #bc3e25"/>
    <path d="M193.8,3287.5a4,4,0,0,1-3.9-4,4.1,4.1,0,0,1,4.1-4,4,4,0,0,1,4,4.2A3.9,3.9,0,0,1,193.8,3287.5Z" transform="translate(-14.6 -3160.9)" style="fill: #eec74a"/>
    <path d="M119.1,3271.9c1.1-.5,2.4-0.2,3.5-0.3s1.3-.4,1.3-1.3c0.2-3.9.2-3.9,4.1-3.9h1.4a1.4,1.4,0,0,1,1.6,1.6c0,0.8,0,1.5,0,2.3s0.3,1.4,1.3,1.3a12.8,12.8,0,0,1,3.5.3c0.4,2.4.9,4.8-.3,7.1-1.5.1-3-.4-4.5,0.3s-0.1,2.2,0,3.4a1.5,1.5,0,0,1-1.6,1.7h-3.8a1.5,1.5,0,0,1-1.6-1.7c0-1.1,0-2.2,0-3.4s-3-.2-4.5-0.3a1.9,1.9,0,0,1-.6-0.7C118.8,3276.2,118.4,3274.1,119.1,3271.9Z" transform="translate(-14.6 -3160.9)" style="fill: #989695"/>
    <path d="M127.4,3278.3a2.9,2.9,0,0,1-2.7-2.8,2.9,2.9,0,0,1,2.6-2.6,2.6,2.6,0,0,1,2.8,2.6A2.6,2.6,0,0,1,127.4,3278.3Z" transform="translate(-14.6 -3160.9)" style="fill: #a09d9c"/>
  </g>
</svg>
