<svg id="415400c6-99e3-48a3-860c-2005d0a33d61" data-name="Pagina Movil" xmlns="http://www.w3.org/2000/svg" viewBox="0 0 290.5 208.2">
  <title>proyecto1</title>
  <g id="b58ab8ef-d21b-41bf-8a40-b0fb6ce1ef30" data-name="proyecto 1">
    <path d="M160.3,1993.8H305.6q-0.1,104.1,0,208.2H15q0.1-104.1,0-208.2H160.3Z" transform="translate(-15 -1993.8)" style="fill: #cbb1a2"/>
    <path d="M160.1,2015.9c44.8-.3,83.6,36,82.6,83.8-0.9,45.1-38.5,81.2-84.6,80.2A82,82,0,0,1,160.1,2015.9Z" transform="translate(-15 -1993.8)" style="fill: #334d5c"/>
    <path d="M168.1,2082.9c6.1,0.1,12.2-.3,18.3.6a47.9,47.9,0,0,1,22.9,9.5,24.6,24.6,0,0,1,6.9,8c0.9,2.9,1,5.8-.7,8.5a2.4,2.4,0,0,1-2.1.6h-8c-0.4,0-1.1-.3-1.2.5a6.6,6.6,0,0,0,3,.6h5.4c1.4,0,1.9.8,1.3,2.1a15.3,15.3,0,0,1-3.4,4.6c-7.3,7.1-16.1,10.9-26,12.1a76,76,0,0,1-9.7.6H125.4a26.7,26.7,0,0,1-17.1-5.8,27.6,27.6,0,0,1-10.8-19.6,19.3,19.3,0,0,1,.8-6.4c4-8.2,10.5-13.2,19.3-15.3,4.3-1,8.7-.6,13.1-0.7a2.2,2.2,0,0,1,2-.7h33.2A3.9,3.9,0,0,1,168.1,2082.9Z" transform="translate(-15 -1993.8)" style="fill: #eec74a"/>
    <path d="M98.3,2098.9c-0.4,4.5-.2,9.1,1.5,13.3,4,9.9,11.2,15.8,21.9,17.4a37,37,0,0,0,5.7.3h48.6a52.9,52.9,0,0,0,22.8-4.7c5.7-2.7,10.6-6.3,14.2-11.6,0.3-.5,1-1.1.6-1.7s-1.1-.2-1.7-0.2h-7.2a2.9,2.9,0,0,1-1.7-.3c0.4-.9,1.3-0.7,2.1-0.8h9.3a4.4,4.4,0,0,0,1.7-.2c-0.2-.5-0.9-0.5-1-1a24,24,0,0,0,1-8.4c3.7,6.5,3.7,13.1.4,19.7s-8.4,9.9-14.3,13a46.5,46.5,0,0,1-21.7,5.5h-53c-4,0-8,.1-11.9-1a28.3,28.3,0,0,1-18.1-38.1Z" transform="translate(-15 -1993.8)" style="fill: #d6b341"/>
    <path d="M130.9,2063.6a1.9,1.9,0,0,1,2.1-1.6h25.2a2.1,2.1,0,0,1,2.1,1.4l6.2,16.6a1.1,1.1,0,0,1-1.2,1H133.1c-2.1-.1-2.3-0.2-2.3-2.3q0-6.8,0-13.6A4,4,0,0,1,130.9,2063.6Z" transform="translate(-15 -1993.8)" style="fill: #eec74a"/>
    <path d="M104.4,2049.7a8.1,8.1,0,0,1,8.2-8.2c4,0,8.1,2.7,8.3,8.3s-4,8.2-8.4,8.2A8.3,8.3,0,0,1,104.4,2049.7Z" transform="translate(-15 -1993.8)" style="fill: #4e6f7c"/>
    <path d="M130.9,2063.6c0,5,.1,9.9,0,14.9,0,1.5.5,1.9,1.9,1.9h31.8a2.6,2.6,0,0,0,1.8-.3c1.1,0.6.9,2,1.6,2.9H130.7c0-5.1,0-10.2.1-15.3A15.5,15.5,0,0,1,130.9,2063.6Z" transform="translate(-15 -1993.8)" style="fill: #d6b341"/>
    <path d="M119.8,2060.4a5,5,0,0,1,5.2,4.9,5.1,5.1,0,0,1-5.4,5,5.2,5.2,0,0,1-5-4.9A5.1,5.1,0,0,1,119.8,2060.4Z" transform="translate(-15 -1993.8)" style="fill: #4e6f7b"/>
    <path d="M134.2,2044.8h3a6.1,6.1,0,0,1,6.2,6.2c0.1,3.1,0,6.3,0,9.4,0,1.1-.5,1.3-1.5,1.4-2.7.1-2.7,0.1-2.7-2.5s0-5.2,0-7.8-0.6-2.5-2.5-2.5h-2.2c-0.6,0-.2-0.3-0.1-0.5a2.9,2.9,0,0,0-.5-3.2A0.5,0.5,0,0,1,134.2,2044.8Z" transform="translate(-15 -1993.8)" style="fill: #152730"/>
    <path d="M221.7,2112.9c0,5.1,0,10,0,15,0,0.3.1,0.7-.4,0.8a1.1,1.1,0,0,1-.7-0.3,4.5,4.5,0,0,1-1.1-2.1,18.4,18.4,0,0,1,0-10.7A3.5,3.5,0,0,1,221.7,2112.9Z" transform="translate(-15 -1993.8)" style="fill: #edc74a"/>
    <path d="M221.7,2100.4c0,2.2,0,4.5,0,6.7,0,0.3.2,0.8-.2,1a0.9,0.9,0,0,1-1-.6,6.3,6.3,0,0,1-1.1-2.5,18.7,18.7,0,0,1,.1-9.6,8,8,0,0,1,.7-1.8c0.3-.5.6-1.2,1.2-1s0.3,0.9.3,1.4C221.7,2096.1,221.7,2098.3,221.7,2100.4Z" transform="translate(-15 -1993.8)" style="fill: #edc74a"/>
    <path d="M233.4,2116.3a3.1,3.1,0,0,1-3-3.1,3.1,3.1,0,0,1,3.1-3.1,3.2,3.2,0,0,1,3.1,3.2A3.1,3.1,0,0,1,233.4,2116.3Z" transform="translate(-15 -1993.8)" style="fill: #99c9e1"/>
    <path d="M228.7,2110.1l-0.7-1.2a2.3,2.3,0,0,1,3.4-2.9,2.3,2.3,0,0,1-1.4,4.2l-1.3-.2h0Z" transform="translate(-15 -1993.8)" style="fill: #99c8e0"/>
    <path d="M228.6,2110.1l0.3,0.9a1.8,1.8,0,0,1-.8,2.4,1.7,1.7,0,0,1-2.2-.2,1.9,1.9,0,0,1,1.8-3.2l0.9,0.2h0Z" transform="translate(-15 -1993.8)" style="fill: #98c8e0"/>
    <path d="M134.2,2045c1.9,0.9,2.1,2.1.3,3.3s-1.6.2-2-.8a1.2,1.2,0,0,1-.3-1.6l0.4-.4A1.2,1.2,0,0,1,134.2,2045Z" transform="translate(-15 -1993.8)" style="fill: #1f93af"/>
    <path d="M225.4,2109.4a1.3,1.3,0,0,1-1.4,1.3,1.2,1.2,0,0,1-1.2-1.4,1.1,1.1,0,0,1,1.2-1.1A1.3,1.3,0,0,1,225.4,2109.4Z" transform="translate(-15 -1993.8)" style="fill: #95c4db"/>
    <path d="M134.2,2045a3.6,3.6,0,0,0-1.6.6c0.2-.9.9-0.9,1.6-0.8S134.2,2044.9,134.2,2045Z" transform="translate(-15 -1993.8)" style="fill: #1c3d49"/>
    <path d="M132.2,2046l0.3,1.6C131.7,2047.2,131.9,2046.6,132.2,2046Z" transform="translate(-15 -1993.8)" style="fill: #203843"/>
    <path d="M119.8,2119.4c-2.6-2.3-4.3-5-4.2-8.6a10.2,10.2,0,0,1,6.6-9.3,10.6,10.6,0,0,1,11.6,2.7l1.4,1.7a10.1,10.1,0,0,1-1.9,13.3A10.6,10.6,0,0,1,119.8,2119.4Z" transform="translate(-15 -1993.8)" style="fill: #9a7713"/>
    <path d="M178.4,2119.7c-3.9-3-5.6-6.8-4.3-11.6a10.2,10.2,0,0,1,16.8-4.4l1.5,1.6a10.1,10.1,0,0,1-5.5,16.1A9.8,9.8,0,0,1,178.4,2119.7Z" transform="translate(-15 -1993.8)" style="fill: #9a7713"/>
    <path d="M149.3,2119.7c-4.5-3.8-5.8-8.5-3.6-13a10.1,10.1,0,0,1,16.4-2.8l1.6,1.8c2.6,4,2.7,7.9-.1,11.9a10.1,10.1,0,0,1-12.8,3.1Z" transform="translate(-15 -1993.8)" style="fill: #9a7713"/>
    <path d="M102.2,2110.6c0.7-12.3,9.2-21.5,21-23.1l2.9-.2a1.5,1.5,0,0,1,1.9,1.5c0,1.2-.8,1.7-1.9,1.7a19.3,19.3,0,0,0-7.5,1.4c-8.2,3.6-12.5,9.9-13.1,18.8-0.1,1.1-.4,1.9-1.6,1.9s-1.6-.9-1.6-2S102.2,2110.3,102.2,2110.6Z" transform="translate(-15 -1993.8)" style="fill: #fbf2d8"/>
    <path d="M178.4,2119.7a11.3,11.3,0,0,0,8.1,1.1,10.1,10.1,0,0,0,6.8-13.7l-0.8-1.8c2.9,2.8,3.5,6.2,2.5,10A10.1,10.1,0,0,1,178.4,2119.7Z" transform="translate(-15 -1993.8)" style="fill: #c59f36"/>
    <path d="M149.3,2119.7a11.6,11.6,0,0,0,7.8,1.2,10.2,10.2,0,0,0,7.2-13.8l-0.6-1.5a10.1,10.1,0,0,1-.4,14C159.3,2123.4,152.9,2123.4,149.3,2119.7Z" transform="translate(-15 -1993.8)" style="fill: #c59f36"/>
    <path d="M119.8,2119.4a11.6,11.6,0,0,0,9.2,1.3,10.2,10.2,0,0,0,6.6-13.6l-0.4-1.2a10,10,0,0,1-5.7,16.3C125.8,2122.9,122.4,2122.2,119.8,2119.4Z" transform="translate(-15 -1993.8)" style="fill: #c59f36"/>
    <path d="M215.2,2109.4h1.1c0.8,0,1.6.1,1.6,1.1s-0.9.9-1.6,0.9H203a1,1,0,0,1-.5-1.3,1.5,1.5,0,0,1,1.5-.6h11.1Z" transform="translate(-15 -1993.8)" style="fill: #9c7814"/>
    <path d="M151.6,2072.6h9.8c0.8,0,1.6,0,1.7,1s-0.8,1.2-1.6,1.2H141.9c-0.8,0-1.7,0-1.7-1.2s0.9-1,1.6-1h9.8Z" transform="translate(-15 -1993.8)" style="fill: #9a7713"/>
    <path d="M132.6,2072c0-2,0-4,0-6.1a2.3,2.3,0,0,1,1.9-2.4,0.6,0.6,0,0,1,.9.4,0.6,0.6,0,0,1-.5.7c-1.2.3-1.3,1.3-1.3,2.3,0,3.7,0,7.5,0,11.2,0,0.5.3,1.3-.5,1.3s-0.5-.8-0.5-1.3c0-2,0-4,0-6.1h0Z" transform="translate(-15 -1993.8)" style="fill: #fbf2d7"/>
    <path d="M126.1,2103a8,8,0,1,1,.1,15.9c-4.7,0-8.3-3.3-8.3-7.8A7.9,7.9,0,0,1,126.1,2103Z" transform="translate(-15 -1993.8)" style="fill: #1f95b1"/>
    <path d="M191.8,2111a8,8,0,1,1-7.9-8A7.9,7.9,0,0,1,191.8,2111Z" transform="translate(-15 -1993.8)" style="fill: #1f95b1"/>
    <path d="M162.7,2111a7.8,7.8,0,0,1-7.9,7.9,8,8,0,1,1-.1-15.9A7.9,7.9,0,0,1,162.7,2111Z" transform="translate(-15 -1993.8)" style="fill: #1f95b1"/>
  </g>
</svg>
