<svg id="035c1801-2aac-45f9-bad0-fa824521e2b0" data-name="Pagina Movil" xmlns="http://www.w3.org/2000/svg" viewBox="0 0 290.5 208.2">
  <title>proyecto3</title>
  <g id="da7e0cf9-be7a-48d2-8b6a-6894b267e3ac" data-name="proyecto 3">
    <path d="M161.2,2667.3H15.9q0.1-104.1,0-208.2H306.5q-0.1,104.1,0,208.2H161.2Z" transform="translate(-15.9 -2459.1)" style="fill: #b94c62"/>
    <path d="M89.6,2603.9c-3.5-5.6-5.7-11.8-7.8-18a73.4,73.4,0,0,1-3.4-26.3c0.6-1.4,1.9-1.3,3.1-1.3s1.6-.2,1.3-1.5A15.2,15.2,0,0,1,95,2539.4c2.1-.4,2.1-0.4,1.9-2.7-0.6-8,4.8-16.1,12.5-18.4,2.4-.7,5-1.2,7.5-0.4,0.9,2.3.9,2.3,3.6,2.3h6.7c1.7,0,1.9-.4,1.3-2a4.2,4.2,0,0,1-.6-1.6,5.7,5.7,0,0,1,1.8-3.3,19.8,19.8,0,0,1,26.3-2.2,23.1,23.1,0,0,1,3.8,3.8,1.4,1.4,0,0,0,2,.3c6.8-3.8,14-4.5,21.2-1.4s11.9,8.9,13.5,16.9a16.9,16.9,0,0,1,.4,4,1.4,1.4,0,0,0,1.3,1.7,16.9,16.9,0,0,1,8.6,4,22.5,22.5,0,0,1,5,6.2,12.2,12.2,0,0,1,1.4,5.8c0,0.7,0,1.4,0,2.1a1.9,1.9,0,0,0,1.6,2.2,13.6,13.6,0,0,1,8.5,7.5,14.1,14.1,0,0,1,.7,9.4c-0.3,1.3-.1,1.8,1.3,2.3a15.5,15.5,0,0,1,10.7,10.3,3.3,3.3,0,0,1,.1,2.3,2,2,0,0,1-1.3.9,14.9,14.9,0,0,0-4.4,2.2c-1.6,1.1-2.4.7-2.6-1.1-1.1-9.6-8.5-15.8-18-15a2.6,2.6,0,0,1-1.4-.1,1.4,1.4,0,0,1-.7-0.8c-0.8-2.9-3.2-4.6-5.3-6.5l-5.9-5.4c-4.1-3.7-8.1-7.6-12.2-11.2-1.5-1.3-2.7-2.8-4.1-4.2-3.5-3.4-7.1-6.8-10.8-9.9-2-1.7-4.1-3.5-6.3-5.1s-4.1-1.5-6.3.1-3.7,3.5-5.7,5.1a60.4,60.4,0,0,0-6.6,5.8,1,1,0,0,1-1.2.4,1.3,1.3,0,0,1-.6-1.2c-0.1-1.1,0-2.1-.1-3.2s-0.3-2.4-1.9-2.6-1.2,1.2-2.2,1.1-1.3-1.1-2.2-1.2-1.4,1.1-2.3.9-1.5-1.2-2.5-.7-1.2,1.8-1.2,3c0,4.4,0,8.7,0,13.1a13.9,13.9,0,0,1-.2,2.9,2.7,2.7,0,0,1-1,2.1c-2.2,2.3-4.8,4.2-7.2,6.4s-5.6,4.9-8.1,7.7-1.7,3.8-.1,6.6c0.4,0.7,1.3.9,1.5,1.7a2.4,2.4,0,0,1-.2,1.2,3.9,3.9,0,0,0,1.8,4.7c1.5,1,1.5,1.3,0,2.3s-2.6,5,0,6.9,1.4,1.4,0,2.3a3.9,3.9,0,0,0-1.7,4.7,1.4,1.4,0,0,1-.6,1.9,4.3,4.3,0,0,1-1.4.2H91.6A6.4,6.4,0,0,1,89.6,2603.9Z" transform="translate(-15.9 -2459.1)" style="fill: #236d58"/>
    <path d="M87.4,2526.7a70.3,70.3,0,0,1,9.5-14.9,78.8,78.8,0,0,1,25.9-21.2,83.3,83.3,0,0,1,45-9,81.5,81.5,0,0,1,42.2,15.7c19.1,13.9,29.8,32.7,33.1,55.9a52,52,0,0,1,.6,10.2,1.8,1.8,0,0,1-1.7.7,16.9,16.9,0,0,0-5.5.9c-1.7.5-2.2,0.3-2.8-1.3a11.2,11.2,0,0,0-8.2-7.6c-1.9-.5-2.3-0.9-2.4-2.7a10.9,10.9,0,0,0-6.5-9.7,3,3,0,0,1-1.9-2.4c-1.2-6.8-6.6-9.6-12.8-9.7-2-.7-2.6-1.3-2.5-3.5a14.7,14.7,0,0,0-2.6-9.1,14,14,0,0,0-12.7-6.1,3.7,3.7,0,0,1-3-1.4,15.5,15.5,0,0,0-9.3-4.9,16.6,16.6,0,0,0-8.8,1c-2,.8-2.5.7-3.8-1a19.2,19.2,0,0,0-13-8,19.5,19.5,0,0,0-20.5,9.9c-0.5.9-1.2,1.8-1.7,2.7s-1.3,1.5-2.6.7a18.2,18.2,0,0,0-7.3-2.6c-6.5-.8-11.6,1.6-15.6,6.5a17.2,17.2,0,0,0-3.4,9c-0.2,1.7-.6,2.1-2.4,2.1s-2.7.4-4.1,0.4A1.3,1.3,0,0,1,87.4,2526.7Z" transform="translate(-15.9 -2459.1)" style="fill: #45b29b"/>
    <path d="M224.4,2616.1a75.6,75.6,0,0,1-20.1,17.1,80.9,80.9,0,0,1-36.4,11.8,82.1,82.1,0,0,1-42.3-7.8,25.2,25.2,0,0,1-5-2.5c0.6-1,1.6-.7,2.4-0.8h18.7a16.3,16.3,0,0,0,2.9-.2c4.5-.8,6.4-3.4,5.6-8a1.9,1.9,0,0,1,.2-2,2.4,2.4,0,0,1,1.7-.4c6.4,0,12.8-.1,19.1.1,9.1-.1,18.2-0.2,27.2,0l1.4-.2a6.6,6.6,0,0,1,1.9.2c2.6,0.4,5.3-2.6,3.8-5.8-0.3-.7-1-1.4,0-2.1a3,3,0,0,1,1.4-.2h15.6A1.7,1.7,0,0,1,224.4,2616.1Z" transform="translate(-15.9 -2459.1)" style="fill: #216854"/>
    <path d="M87.4,2526.7a23.8,23.8,0,0,1,5.5-.6c1,0.1,1.5-.3,1.6-1.4,0.7-7.8,5.3-13.6,12.8-15.8a16.8,16.8,0,0,1,14.5,2.3c0.9,0.6,1.2.5,1.7-.5,3.3-6.7,8.1-11.7,15.8-12.9s15.5,1.3,20.6,8.3c0.8,1.1,1.4,1.3,2.7.8a16.5,16.5,0,0,1,18.5,3.5,4.9,4.9,0,0,0,3.9,1.7,14.8,14.8,0,0,1,15.1,14.9c0,1.7,0,3.2,1.9,3.9,3.6,1.7,4.6,4.9,5.1,8.4a1.3,1.3,0,0,1-.6,1.5,18.1,18.1,0,0,0-9.2-3.8c-1.1-.1-1.1-0.8-1.1-1.6a21.6,21.6,0,0,0-5.2-14.8,21.2,21.2,0,0,0-14.4-7.7,22.2,22.2,0,0,0-15.2,3.6c-0.8.5-1.2,0.2-1.7-.4-4.2-5.8-9.9-8.6-16.9-8.2a17.5,17.5,0,0,0-14.5,8.6,1.3,1.3,0,0,1-1.5-.3,6.4,6.4,0,0,0-5.9-.8,2.2,2.2,0,0,1-1.7,0,6.1,6.1,0,0,1-1.2-1.4,5.5,5.5,0,0,0-5.1-2.4,5.4,5.4,0,0,0-5,3.4c-0.5,1.3-.3,1.6,1.1,1.7h6.4c0.7,0,1.5-.1,1.8.9a0.4,0.4,0,0,1-.4.5c-7.9-.3-13.8,2.9-17.4,9.9a14.5,14.5,0,0,0-1.6,9.9c0.3,1.4,0,1.9-1.6,2.1A14.4,14.4,0,0,0,84,2558c0.3,1.3.1,1.5-1.1,1.2a7.3,7.3,0,0,0-4.4.5,60.2,60.2,0,0,1,2.2-15.6c1.7-5.6,3.4-11.2,6.1-16.4Z" transform="translate(-15.9 -2459.1)" style="fill: #308b74"/>
    <path d="M224.4,2616.1H205.2a1.8,1.8,0,0,1-2-.6c-0.8-.7-0.1-1.2.5-1.6a4.2,4.2,0,0,0,.3-7.2c-1.5-1-1.6-1.3,0-2.1s2.5-6.1-.1-7.2-1.3-1.2,0-2.1c2.9-1.8,2.8-5.4-.2-7.2-1.1-.7-1.1-1.2-0.2-1.9,2.5-1.8,2.9-2.8,1.9-5.8a1.6,1.6,0,0,1-.1-0.8,2.9,2.9,0,0,1,1-1.4,8.5,8.5,0,0,0,1.1-2.4,1.4,1.4,0,0,1,.9-1.1c9.9-1.5,18.1,4.1,20,13.8,0.2,1-.4,2.4.5,2.8s1.5-1,2.3-1.4a16.8,16.8,0,0,1,4.6-1.7,3,3,0,0,1,3.8-.1,77,77,0,0,1-10.7,21.9A54.3,54.3,0,0,1,224.4,2616.1Z" transform="translate(-15.9 -2459.1)" style="fill: #134435"/>
    <path d="M150.5,2624.1a8.2,8.2,0,0,1,.2,6.2c-1.4,3.4-4.3,4.3-7.5,4.3H120.6a70.9,70.9,0,0,1-14-9.8,33.7,33.7,0,0,1-4.1-4,2.2,2.2,0,0,1,.1-2.5,9.5,9.5,0,0,1,8.6-5.2c1.2,0,2.5.1,3.2-1.2s0.5-.7.9-0.9a6.6,6.6,0,0,1,4-2,4.8,4.8,0,0,1,2.9.4,2.5,2.5,0,0,1,1.2.4l1.5,0.6a9.4,9.4,0,0,1,2.4,2.7,1,1,0,0,0,1.4.4,9.4,9.4,0,0,1,7.4,1c1.1,1.1,2.5,1.9,3.2,3.4a5.1,5.1,0,0,1,.5,1.8,0.9,0.9,0,0,0,1.3.9,10.1,10.1,0,0,1,5.3-.3l2.2,0.9C149.5,2622,150.7,2622.6,150.5,2624.1Z" transform="translate(-15.9 -2459.1)" style="fill: #134435"/>
    <path d="M239.8,2588.1H236a16,16,0,0,0-6.3-9.7,14.3,14.3,0,0,0-5.7-2.5c-1-.2-1.4-0.4-1-1.5,3-8.6-2.4-16-9.2-17.5a1.4,1.4,0,0,1-1.3-1.7,32.1,32.1,0,0,0-.1-4.5c-0.4-3.3-2.2-5.8-4.2-8.2l-1.7-1.9c0.2-4.1-1.9-7.1-4.5-9.9,6.3-.5,12.8,3.6,13.5,10.6a1.5,1.5,0,0,0,1.1,1.2c4.6,2.1,7.1,5.6,7.3,10.7a1.4,1.4,0,0,0,1.1,1.6c4.9,1.1,8.2,3.9,9.5,8.8a0.7,0.7,0,0,0,1.2.6,17.7,17.7,0,0,1,8-1.2A73.3,73.3,0,0,1,239.8,2588.1Z" transform="translate(-15.9 -2459.1)" style="fill: #389a82"/>
    <path d="M114.9,2612.3c-0.5,1.3-1.2,1.7-2.7,1.6a8.8,8.8,0,0,0-9.7,7,72.1,72.1,0,0,1-12.9-16.9,2.8,2.8,0,0,1,2-.4H115c1.3-.2,1.9.9,2.7,1.6a0.7,0.7,0,0,1-.2,1.1C114.9,2607.5,114.8,2609.8,114.9,2612.3Z" transform="translate(-15.9 -2459.1)" style="fill: #216854"/>
    <path d="M206.8,2578.6l-1,1c-0.6.3-1-.2-1.4-0.5-2.2-1.3-3.5-1.1-5.4.6a2.3,2.3,0,0,1-1.6.7c-2.2.5-4.5,0-6.7,0.1h-57a50.2,50.2,0,0,0-6.2.2,11.3,11.3,0,0,1-4-.2,2.5,2.5,0,0,1-1.7-.8c-2-1.7-3.6-1.8-5.7-.2a1.1,1.1,0,0,1-1.2.4,5.3,5.3,0,0,1-1.5-1.2,2.2,2.2,0,0,1,.9-1.6c3.4-3,6.5-6.1,10-9,1.9-1.6,3.6-3.2,5.4-5s6.4-6.1,9.7-9l5-4.7c3.5-3.2,7.1-6.5,10.5-9.8s7-3.2,10.3.1,4.7,4,7,6.1,2.3,2.6,3.5,3.7,2.5,2.6,4,3.7,3.6,3.4,5.4,4.9,3.4,2.7,5,4.2c5.2,5,10.7,9.7,15.8,14.7A2.1,2.1,0,0,1,206.8,2578.6Z" transform="translate(-15.9 -2459.1)" style="fill: #4c2e0b"/>
    <path d="M206.8,2578.6a72.7,72.7,0,0,1-6.7-6l-31.6-29.2-4.6-4c-2.5-2.2-5.5-2-8.1.3L142,2552.6c-5.7,5.3-11.2,10.6-17.1,15.7-3.9,3.4-7.5,7.1-11.5,10.3-2.2-2.8-2.1-5.8.5-8.3,4.6-4.5,9.5-8.7,14.3-13l1.4-1.5c1.4-1.9,1.5-4,1.5-6.2-0.1-3.8,0-7.6,0-11.5a3.5,3.5,0,0,1,.7-2.5,2.4,2.4,0,0,1,2.3,1.3c0.8,0.5.7,1.3,0.7,2,0,2.9,0,5.9,0,8.8a3,3,0,0,0,.3,1.8,2.2,2.2,0,0,0,.5-1.8c0-3.2,0-6.5,0-9.7a2.5,2.5,0,0,1,.7-2.2,2.5,2.5,0,0,1,2.3,1.5c0.8,0.5.7,1.3,0.7,2a45.8,45.8,0,0,0,.2,6,52.2,52.2,0,0,0,.2-6.8,3.8,3.8,0,0,1,.7-2.7c1.9,0,2.6.6,2.7,2.5s0,3.1,0,5.2l5.2-4.7c2.5-2.3,5-4.8,7.6-7s5.5-2.2,8.2.1c8,7,15.8,14.3,23.6,21.5l17.7,16.4a7.8,7.8,0,0,1,2.9,5A6.6,6.6,0,0,1,206.8,2578.6Z" transform="translate(-15.9 -2459.1)" style="fill: #985f1a"/>
    <path d="M114.9,2579.9c2.7-2.9,5.5-2.9,8,0,1.6,0.8,1.4,2.2,1.2,3.5a3.9,3.9,0,0,1-1.8,3.2c-0.9.6-.1,0.8,0.1,1.1a4.8,4.8,0,0,1,1.6,5.1,4.1,4.1,0,0,1-2.4,3.5,5.2,5.2,0,0,1,.8.7,4.6,4.6,0,0,1,1.6,4.8,4.6,4.6,0,0,1-1.7,3.4c-0.3.2-.7,0.4-0.2,0.8a7.3,7.3,0,0,1,1.8,2.5,1.4,1.4,0,0,1-.5,2l-1.1-.6a3.8,3.8,0,0,1-1.1-1.3,2.7,2.7,0,0,0-2.7-1.2,2.5,2.5,0,0,0-2.2,2.2,10.3,10.3,0,0,1-.6,1.8l-0.8.8c-1.4-2.6-.5-4.8,2.7-6.7a7.5,7.5,0,0,1-2.7-2c-1.4-3.5-.7-5.4,2.6-7.2-5-2.5-3.9-7.8,0-9.3C114.2,2585,113.6,2583.4,114.9,2579.9Z" transform="translate(-15.9 -2459.1)" style="fill: #e1b178"/>
    <path d="M116.9,2518.1l0.3-.3c0.1-1.9.6-2.5,2.3-2.6,3.3-1.3,6.3-1.2,8.9,1.4a9,9,0,0,1,1.5,3.3c0.1,0.8.1,1.2-.9,1.2H117.3c-0.8,0-1-.3-0.9-1Z" transform="translate(-15.9 -2459.1)" style="fill: #fefefe"/>
    <path d="M132.9,2528c3.4-1.4,6.8,0,7.6,3.3,0.2,1,.2,1.5-1.1,1.4h-7.2c-2.5,0-2.5-.1-1.5-2.5S131.2,2528.2,132.9,2528Z" transform="translate(-15.9 -2459.1)" style="fill: #fdfdfd"/>
    <path d="M132.9,2528a6.5,6.5,0,0,0-2.1,2.2c-0.9-.7-1.9-0.2-2.9-0.3h-3.7c-2.1,0-2.3-.4-1.4-2.3s6.6-4.5,9.3-.9Z" transform="translate(-15.9 -2459.1)" style="fill: #d7d7d7"/>
    <path d="M131.8,2535.7c0,5.4-.1,10.8.1,16.2a3.9,3.9,0,0,1-2.2,4q0-8.8,0-17.5A2.3,2.3,0,0,1,131.8,2535.7Z" transform="translate(-15.9 -2459.1)" style="fill: #4d2f0b"/>
    <path d="M136.3,2535.7q0,6.5,0,12.9a3.4,3.4,0,0,1-.1,1c-0.3.9-1,1.8-1.8,1.8s-0.4-1.2-.4-1.8c0-4.2,0-8.4,0-12.6C134.8,2536.4,135.3,2535.6,136.3,2535.7Z" transform="translate(-15.9 -2459.1)" style="fill: #4d2f0b"/>
    <path d="M140.5,2535.7c0,3,0,6,0,9a2.2,2.2,0,0,1-.3,1.5c-0.4.4-.7,1.1-1.3,1s-0.3-.9-0.3-1.4c0-2.9,0-5.8,0-8.6A3,3,0,0,1,140.5,2535.7Z" transform="translate(-15.9 -2459.1)" style="fill: #4c2e0b"/>
    <path d="M150.5,2624.1a12.5,12.5,0,0,0-2.3-2.3,3,3,0,0,1-.6-1.9,25.4,25.4,0,0,1,0-4.7,24.6,24.6,0,0,1,0-4.2,29.7,29.7,0,0,1,0-4.8,25.1,25.1,0,0,1,0-4.2c-0.2-1.6,0-3.2,0-4.8a24.7,24.7,0,0,1,0-4.2,27.6,27.6,0,0,1,0-5.2,2.1,2.1,0,0,1,.5-1.5,3.3,3.3,0,0,1,2.3-.5h18.7a3.6,3.6,0,0,1,2.3.4,1.9,1.9,0,0,1,.5,1.5,28.4,28.4,0,0,1,0,5.2,25.4,25.4,0,0,1,0,4.2,29.9,29.9,0,0,1,0,4.8,22.3,22.3,0,0,1,0,4.2c-0.3,1.6.3,3.2,0,4.8a25.3,25.3,0,0,1,0,4.2,30.8,30.8,0,0,1,0,4.8c-0.1,1.4.6,2.9-.7,4.1H150.5Z" transform="translate(-15.9 -2459.1)" style="fill: #331d07"/>
    <path d="M197.9,2579.9c2.5-2.8,5-2.9,7.9-.3s0.8,5.6-2.6,7.5c2.1,0.9,3.4,2.3,3.4,4.6s-1.3,3.7-3.5,4.6c2.2,0.9,3.5,2.2,3.5,4.6s-1.3,3.7-3.4,4.7c2.1,0.9,3.4,2.3,3.4,4.5s-1.2,3.8-3.4,4.7l2,1.3a4.8,4.8,0,0,1,.8,5.6c-1.2,2.3-3.3,2.7-5.6,2.3s-3.5-1.5-3.7-4.1,0.8-3.6,2.2-4.9c-0.1-.8-0.9-1-1.2-1.5a5,5,0,0,1-1-2.7c-0.5-2.2.7-3.6,2.2-4.9s-0.4-.8-0.6-1.1a5,5,0,0,1-1.5-3c-0.6-2,.6-3.4,1.7-4.8s0.7-.8.1-1.3a4,4,0,0,1-1.6-2.6c-0.9-2.3.1-4,1.7-5.5s0.2-.9-0.2-1.2a4.8,4.8,0,0,1-1.7-2.9C196.4,2582,196.4,2580.7,197.9,2579.9Z" transform="translate(-15.9 -2459.1)" style="fill: #e1b178"/>
    <path d="M197.2,2619.9a5.3,5.3,0,0,0,3.2,4.1H171.3v-4.2a2.3,2.3,0,0,1,2-.7h21.8A2.2,2.2,0,0,1,197.2,2619.9Z" transform="translate(-15.9 -2459.1)" style="fill: #4c2e0b"/>
    <path d="M119.4,2515.1a10.2,10.2,0,0,0-2.3,2.6c-1.2-.6-2.4-0.2-3.6-0.2h-5.4c-1.2.1-1.6-.3-1.3-1.5a6.6,6.6,0,0,1,6-5.1A6.3,6.3,0,0,1,119.4,2515.1Z" transform="translate(-15.9 -2459.1)" style="fill: #d7d7d7"/>
    <path d="M148.2,2606.2v4.7a2.1,2.1,0,0,1-2,.8H127.3a7.6,7.6,0,0,1-2.8-.7l-1.1-.4c0.5-1.9-.7-3.1-1.8-4.3a1.7,1.7,0,0,1,1.8-.8h23A2.1,2.1,0,0,1,148.2,2606.2Z" transform="translate(-15.9 -2459.1)" style="fill: #985e1a"/>
    <path d="M124.6,2610.9h23.6v4.3a2.2,2.2,0,0,1-1.9.7h-7.8a8.2,8.2,0,0,1-2.8-.7c-2.6-1.2-5.2-1.7-7.9-.4-0.8.4-.9-0.2-1.1-0.7A7,7,0,0,0,124.6,2610.9Z" transform="translate(-15.9 -2459.1)" style="fill: #4c2e0b"/>
    <path d="M135.8,2615.1h12.4v4.7a1.4,1.4,0,0,1-1.5.6,17.3,17.3,0,0,0-5.5.1,1.7,1.7,0,0,1-1.8-.7A10.5,10.5,0,0,0,135.8,2615.1Z" transform="translate(-15.9 -2459.1)" style="fill: #985f1a"/>
    <path d="M115.7,2611.5c-0.4-1.6-.3-3.1,1.1-4.2a3.4,3.4,0,0,1,5.5,2.6A7.2,7.2,0,0,0,115.7,2611.5Z" transform="translate(-15.9 -2459.1)" style="fill: #985f1a"/>
    <path d="M139.3,2619.9h8.9v1.9c-2.9-1.7-5.7-1.5-8.5.5Z" transform="translate(-15.9 -2459.1)" style="fill: #4b2e0b"/>
    <path d="M186,2575.7H134.5a0.8,0.8,0,0,1,.2-1,1.1,1.1,0,0,1,1-.3c4.8-.2,9.6,0,14.5-0.2h-11c-0.8,0-1.7.2-2.3-.8a3.9,3.9,0,0,1,4-3.3h38.6c2.3,0.1,4.5,1.9,4.7,3.8s-2.7.2-3.9,0.5a28.7,28.7,0,0,1,5.2.2A0.8,0.8,0,0,1,186,2575.7Z" transform="translate(-15.9 -2459.1)" style="fill: #985f1a"/>
    <path d="M175.4,2565.7h-30c-0.4-1.6,1.3-1.8,1.9-2.7h0.5c2.9-.2,5.7-0.1,8.1-0.1h-5.3a2.1,2.1,0,0,1-1.7-.4c-0.5-1.3.7-1.1,1.2-1.5h20.1c2.3,0.5,3.5,2.4,5,3.9A0.6,0.6,0,0,1,175.4,2565.7Z" transform="translate(-15.9 -2459.1)" style="fill: #985f1a"/>
    <path d="M159.8,2552h7.8a4.2,4.2,0,0,1,3.3,1.2l3.5,3.6h-9.2c-1-.6-2.5-0.8-2.4-2.5s1.1-.7,1.8-0.7h-3.2a6.6,6.6,0,0,0-2.6,0c-1.7-.3-3.3.2-5,0,1.2,0.4,2.6-.5,3.5.7s-1.3,1.9-2.3,2.5h-7.4a1.2,1.2,0,0,1,0-1.6,12.7,12.7,0,0,1,3.2-2.9c2.2-.4,4.4-0.1,6.6-0.2A6.6,6.6,0,0,0,159.8,2552Z" transform="translate(-15.9 -2459.1)" style="fill: #714612"/>
    <path d="M134.8,2575.1l-0.3.6h-8.6l-0.2-.4,5.7-5.2a2.4,2.4,0,0,1,1.4-.2h47.1q0.3,0.1,0,.3c-12.1,0-24.2.1-36.2-.1a7.2,7.2,0,0,0-6.7,3.3l-0.3.4C136,2574.1,134.9,2573.8,134.8,2575.1Z" transform="translate(-15.9 -2459.1)" style="fill: #714612"/>
    <path d="M175.4,2565.7l-5.1-4.7h8a2.3,2.3,0,0,1,1.8.6l4,4.1h-8.7Z" transform="translate(-15.9 -2459.1)" style="fill: #714612"/>
    <path d="M123.6,2583.7a6.7,6.7,0,0,0-.6-3.9h67.9a0.5,0.5,0,0,1-.1.6,2.9,2.9,0,0,1-2.1.5c-13.1,0-26.2.1-39.3-.1l-15-.2h-1.9c-2.6.2-4.5,1.6-6.3,3.4A1.8,1.8,0,0,1,123.6,2583.7Z" transform="translate(-15.9 -2459.1)" style="fill: #714512"/>
    <path d="M179.9,2570.2V2570h7.5a3.3,3.3,0,0,1,2.9,1.2c0.8,1,2.1,1.5,2.8,2.6a1.5,1.5,0,0,1-1.5.7,27.5,27.5,0,0,1-7-.3l-0.5-.4C182.6,2572.7,181.7,2571,179.9,2570.2Z" transform="translate(-15.9 -2459.1)" style="fill: #714612"/>
    <path d="M150.2,2561l-1.3,1.2-0.3.4c-1.8.5-3.6,0.2-5.2,0.3,1.2,0.4,2.7-.7,3.9.6l-1.9,2.2h-8.7l3.8-4.1a2.5,2.5,0,0,1,1.9-.6h7.8Z" transform="translate(-15.9 -2459.1)" style="fill: #714612"/>
    <path d="M163,2554.6a9.6,9.6,0,0,1,2.2,2.2H155a9.8,9.8,0,0,1,2.2-2.2,0.9,0.9,0,0,1,.7-0.9h4.3A0.9,0.9,0,0,1,163,2554.6Z" transform="translate(-15.9 -2459.1)" style="fill: #985f1a"/>
    <path d="M164.4,2547.7h-8.6c1-1.7,2.7-2.5,3.8-3.7a0.7,0.7,0,0,1,1,.1A21.8,21.8,0,0,1,164.4,2547.7Z" transform="translate(-15.9 -2459.1)" style="fill: #714512"/>
    <path d="M190.8,2580.2v-0.3h7.1a6.2,6.2,0,0,0-.6,3.8c-0.6,1-1.5.7-2.3,0.7a34.4,34.4,0,0,1-3.8-3A1.2,1.2,0,0,1,190.8,2580.2Z" transform="translate(-15.9 -2459.1)" style="fill: #714512"/>
    <path d="M184.4,2573.8h8.7l1.6,1.5v0.4H186l-0.6-.6C185,2574.7,184.1,2574.7,184.4,2573.8Z" transform="translate(-15.9 -2459.1)" style="fill: #7e5220"/>
    <path d="M159.8,2552c-1.5.7-3.1,0.2-4.7,0.3h-4.3c1.5-.6,3.1-0.2,4.7-0.3h4.3Z" transform="translate(-15.9 -2459.1)" style="fill: #714612"/>
    <path d="M147.6,2555.2v1.6h-1.3A2.7,2.7,0,0,1,147.6,2555.2Z" transform="translate(-15.9 -2459.1)" style="fill: #714612"/>
    <path d="M115.2,2575l-0.4-.3a0.6,0.6,0,0,1,.2-0.8l2.3-2.2,9.7-8.5c0.4-.3.7-1,1.3-0.5s0,1.1-.4,1.5l-8.9,7.8-2.7,2.5A1.6,1.6,0,0,1,115.2,2575Z" transform="translate(-15.9 -2459.1)" style="fill: #b97e3d"/>
    <path d="M137.4,2551.6a0.6,0.6,0,0,1-.7-0.4,0.9,0.9,0,0,1,.4-1l5.6-5.2,5.8-5.2c0.4-.4.9-1.2,1.6-0.6s-0.2,1.1-.6,1.5l-11.4,10.4Z" transform="translate(-15.9 -2459.1)" style="fill: #b97e3d"/>
    <path d="M189.1,2560l-0.4.2a0.9,0.9,0,0,1-1-.3l-3.1-2.8-8.1-7.4-0.6-.6c-0.3-.4-0.7-0.8-0.3-1.3s0.9,0,1.2.3l7.1,6.4,4.4,4.1A1.6,1.6,0,0,1,189.1,2560Z" transform="translate(-15.9 -2459.1)" style="fill: #b97e3d"/>
    <path d="M168.7,2537.1a2.5,2.5,0,0,1,1.3.7l10.9,9.9,0.5,0.5c0.3,0.4.7,0.8,0.3,1.3s-0.9,0-1.2-.3l-6.1-5.4-5.6-5.2a0.9,0.9,0,0,1-.5-1.1Z" transform="translate(-15.9 -2459.1)" style="fill: #b97e3d"/>
    <path d="M148.2,2592.9v4.3a1.8,1.8,0,0,1-1.6.5h-16c-1.8,0-3.6.4-5.4,0.3a7,7,0,0,1-3.2-.7l-1.8-.9a5.6,5.6,0,0,0,3.4-3.4,2.5,2.5,0,0,1,2-.7h20.7A2.3,2.3,0,0,1,148.2,2592.9Z" transform="translate(-15.9 -2459.1)" style="fill: #4c2e0b"/>
    <path d="M148.2,2606.2H121.6l-1.5-.6a5.4,5.4,0,0,0,3.5-3.7,2.3,2.3,0,0,1,2-.7h20.6a2.3,2.3,0,0,1,1.9.6v4.3Z" transform="translate(-15.9 -2459.1)" style="fill: #4c2e0b"/>
    <path d="M148.2,2592.9H123.6a5.3,5.3,0,0,0-1.6-5,1.6,1.6,0,0,1,1.8-.8c7.7,0,15.3-.1,23,0.1a1.6,1.6,0,0,1,1.5.7v4.9Z" transform="translate(-15.9 -2459.1)" style="fill: #985e1a"/>
    <path d="M148.2,2601.9H123.6a5.4,5.4,0,0,0-1.7-4.8h26.3v4.7Z" transform="translate(-15.9 -2459.1)" style="fill: #985e1a"/>
    <path d="M148.2,2588H121.9l-1.8-.9a5.6,5.6,0,0,0,3.4-3.3h2.2a4.9,4.9,0,0,1,2.6-.7h13.3a2.8,2.8,0,0,1,1.8.4,2.1,2.1,0,0,1,.6.9,2.1,2.1,0,0,0,2.2,1.5c0.7,0,1.5-.1,2,0.7v1.4Z" transform="translate(-15.9 -2459.1)" style="fill: #4c2e0b"/>
    <path d="M122.4,2582.5a3.4,3.4,0,1,1-3.3-3.5A3.5,3.5,0,0,1,122.4,2582.5Z" transform="translate(-15.9 -2459.1)" style="fill: #995f1a"/>
    <path d="M118.9,2597.4a3.4,3.4,0,1,1,.1,6.8,3.4,3.4,0,0,1-3.4-3.3A3.3,3.3,0,0,1,118.9,2597.4Z" transform="translate(-15.9 -2459.1)" style="fill: #995f1a"/>
    <path d="M118.9,2595a3.3,3.3,0,0,1-3.4-3.5,3.4,3.4,0,0,1,3.4-3.3,3.3,3.3,0,0,1,3.4,3.5A3.3,3.3,0,0,1,118.9,2595Z" transform="translate(-15.9 -2459.1)" style="fill: #995f1a"/>
    <path d="M148.2,2586.6H146c-1.9,0-2.4-.6-2.5-2.5s0.6-1.7,1.7-1.8c9.1-.5,18.2-0.2,27.3-0.2a2.6,2.6,0,0,1,2.8,2.1c0.4,1.3-.4,2.1-1.4,2.7a1.9,1.9,0,0,1-2.6-.3H148.2Z" transform="translate(-15.9 -2459.1)" style="fill: #e1b178"/>
    <path d="M197.4,2593a5.5,5.5,0,0,0,3.3,3.3l-1.8.9a5,5,0,0,1-2.8.5c-5.6-.1-11.3-0.1-16.9,0-2,.1-3.9.2-5.9,0.2a2.3,2.3,0,0,1-2-.7v-4.2a2.6,2.6,0,0,1,2.4-.6q9.6,0.5,19.1,0C194.4,2592.3,196.1,2591.8,197.4,2593Z" transform="translate(-15.9 -2459.1)" style="fill: #4c2e0b"/>
    <path d="M197.3,2601.9a5.4,5.4,0,0,0,3.6,3.7l-1.4.5c-2.3,1.1-4.7.8-7.1,0.7-6.4-.4-12.9-0.1-19.3-0.2a2,2,0,0,1-1.8-.5v-4.2a2.1,2.1,0,0,1,1.7-.6h22.5A2.4,2.4,0,0,1,197.3,2601.9Z" transform="translate(-15.9 -2459.1)" style="fill: #4c2e0b"/>
    <path d="M197.2,2610.9a5.5,5.5,0,0,0,2.9,3.7c1,0.5-.1.4-0.3,0.6a11.5,11.5,0,0,1-3.9.5c-6.2,0-12.4-.3-18.7.1a38.3,38.3,0,0,1-4.5,0,1.9,1.9,0,0,1-1.5-.7v-4.2a2.3,2.3,0,0,1,2-.7h21.9A2.3,2.3,0,0,1,197.2,2610.9Z" transform="translate(-15.9 -2459.1)" style="fill: #4c2e0b"/>
    <path d="M197.4,2593H171.3a29.3,29.3,0,0,1,0-5,1.8,1.8,0,0,1,1.7-.7c8.1-.2,16.2-0.1,24.3-0.1a1.7,1.7,0,0,1,1.8.7A4.8,4.8,0,0,0,197.4,2593Z" transform="translate(-15.9 -2459.1)" style="fill: #975e1a"/>
    <path d="M199.1,2587.9H171.3v-1.3c2.9-.2,3.1-0.3,3.5-2.3s0.5-1.2,1.2-1.3h15.5a5.6,5.6,0,0,1,3.2.8h2.7a5.7,5.7,0,0,0,3.4,3.4Z" transform="translate(-15.9 -2459.1)" style="fill: #4c2e0b"/>
    <path d="M171.3,2615.1h28.6a5.3,5.3,0,0,0-2.7,4.7H171.3v-4.8Z" transform="translate(-15.9 -2459.1)" style="fill: #985f1a"/>
    <path d="M197.2,2610.9H171.3v-4.8h28.2A5.3,5.3,0,0,0,197.2,2610.9Z" transform="translate(-15.9 -2459.1)" style="fill: #985f1a"/>
    <path d="M197.3,2601.9H171.4v-4.7h27.6A5.6,5.6,0,0,0,197.3,2601.9Z" transform="translate(-15.9 -2459.1)" style="fill: #985e1a"/>
    <path d="M202,2604.5a3.5,3.5,0,0,1-3.5-3.5,3.5,3.5,0,0,1,3.4-3.5,3.4,3.4,0,0,1,3.5,3.4A3.5,3.5,0,0,1,202,2604.5Z" transform="translate(-15.9 -2459.1)" style="fill: #995f1a"/>
    <path d="M205.4,2591.7a3.5,3.5,0,1,1-3.5-3.4A3.4,3.4,0,0,1,205.4,2591.7Z" transform="translate(-15.9 -2459.1)" style="fill: #995f1a"/>
    <path d="M201.9,2579a3.5,3.5,0,0,1,.2,6.9A3.5,3.5,0,0,1,201.9,2579Z" transform="translate(-15.9 -2459.1)" style="fill: #995f1a"/>
    <path d="M202,2606.7a3.4,3.4,0,1,1-3.4,3.5A3.4,3.4,0,0,1,202,2606.7Z" transform="translate(-15.9 -2459.1)" style="fill: #995f1a"/>
    <path d="M202,2622.8a3.4,3.4,0,1,1,.2-6.8A3.4,3.4,0,1,1,202,2622.8Z" transform="translate(-15.9 -2459.1)" style="fill: #995f1a"/>
    <path d="M124.5,2607.1a3.6,3.6,0,0,1,1.7-.3h15.3a0.8,0.8,0,1,1,0,1.5H126.3a3.7,3.7,0,0,1-1.7-.3A0.7,0.7,0,0,1,124.5,2607.1Z" transform="translate(-15.9 -2459.1)" style="fill: #b67b3a"/>
    <path d="M124.5,2607.1v1C123.8,2607.7,123.8,2607.4,124.5,2607.1Z" transform="translate(-15.9 -2459.1)" style="fill: #a46a27"/>
    <path d="M136.7,2573.5h14.7c0.5,0.1,1.2.1,1.2,0.8s-0.7.7-1.2,0.7h-15l-0.9-.3C135.2,2573.6,136.2,2573.8,136.7,2573.5Z" transform="translate(-15.9 -2459.1)" style="fill: #b67b3a"/>
    <path d="M165.7,2570.9h7.8c0.4,0,1.1-.1,1.1.6s-0.6.7-1,.7H157.5c-0.4,0-1,0-1-.6s0.6-.7,1.1-0.7h8.2Z" transform="translate(-15.9 -2459.1)" style="fill: #b87d3c"/>
    <path d="M184.4,2573.8l1,1.2h-6.7c-0.5,0-1.1,0-1.1-.6s0.6-.6,1.1-0.6h5.7Z" transform="translate(-15.9 -2459.1)" style="fill: #b87d3c"/>
    <path d="M136.7,2573.5l-1.3,1.3-0.6.3C134.1,2572.9,135.8,2573.7,136.7,2573.5Z" transform="translate(-15.9 -2459.1)" style="fill: #805321"/>
    <path d="M148.6,2562.3h8.7c0.5,0,1.2-.1,1.2.6s-0.7.6-1.2,0.6h-9.7C147.3,2562.6,148.1,2562.6,148.6,2562.3Z" transform="translate(-15.9 -2459.1)" style="fill: #b97e3e"/>
    <path d="M148.6,2562.3l-1,1.2H142c-0.5,0-1.3.2-1.3-.6s0.8-.7,1.3-0.7h6.6Z" transform="translate(-15.9 -2459.1)" style="fill: #825624"/>
    <path d="M163,2554.6l-0.6-.6c-0.6-.1-1.2-0.1-1-1,1.9,0,3.7-.1,5.6,0s2.7-.7,2.7.6-1.8.4-2.7,0.6S164.2,2553.9,163,2554.6Z" transform="translate(-15.9 -2459.1)" style="fill: #825523"/>
    <path d="M157.8,2553.9l-0.6.6c-1.4-.6-2.8-0.2-4.2-0.3s-1.4.1-1.3-.7,0.8-.5,1.3-0.5h5.9C159,2553.8,158.5,2554,157.8,2553.9Z" transform="translate(-15.9 -2459.1)" style="fill: #825523"/>
    <path d="M157.8,2553.9l1-1a2.9,2.9,0,0,1,2.6,0l1,1A6.9,6.9,0,0,1,157.8,2553.9Z" transform="translate(-15.9 -2459.1)" style="fill: #b27837"/>
    <path d="M194.7,2583.7H176.6c-0.7,0-1.4-.3-1.8.6a2.3,2.3,0,0,0-2.6-1.7H146a2.4,2.4,0,0,0-2.5,1.4,3.2,3.2,0,0,0-2-.3H125.8a8.4,8.4,0,0,1,7.3-3.6c19.2,0.2,38.5.1,57.7,0.1A17,17,0,0,1,194.7,2583.7Z" transform="translate(-15.9 -2459.1)" style="fill: #985e1a"/>
    <path d="M134.3,2590.1h-7.5c-0.5,0-1.2.1-1.3-.6s0.7-.6,1.2-0.6h15.5c0.5,0,1.2-.1,1.2.6s-0.8.6-1.3,0.6h-7.8Z" transform="translate(-15.9 -2459.1)" style="fill: #b87d3c"/>
    <path d="M137.7,2599.1h-7.7c-0.5,0-1.1.1-1.2-.5s0.6-.8,1.1-0.8h15.6c0.5,0,1.1,0,1.1.6s-0.7.6-1.2,0.6h-7.8Z" transform="translate(-15.9 -2459.1)" style="fill: #b87d3d"/>
    <path d="M183.1,2592h-7.3c-0.6,0-1.5.1-1.5-.8s0.9-.8,1.5-0.8h14.8l1.1,0.2a0.6,0.6,0,0,1,.5.5,0.6,0.6,0,0,1-.5.7l-1.9.2h-6.7Z" transform="translate(-15.9 -2459.1)" style="fill: #b67b3a"/>
    <path d="M187.5,2616H195c0.5,0,1.2-.2,1.3.6s-0.7.7-1.2,0.7H179.5c-0.5,0-1.2,0-1.2-.7s0.8-.6,1.3-0.6h7.8Z" transform="translate(-15.9 -2459.1)" style="fill: #b87d3c"/>
    <path d="M181.5,2608.1h-7.7c-0.5,0-1.2.1-1.3-.6s0.7-.7,1.2-0.7h15.4c0.5,0,1.3-.1,1.3.6s-0.8.6-1.4,0.6h-7.5Z" transform="translate(-15.9 -2459.1)" style="fill: #b97e3e"/>
    <path d="M188,2597.5h7.3c0.6,0,1.5-.1,1.5.8s-0.9.8-1.5,0.8H180.4c-0.6,0-1.5.1-1.5-.7s0.9-.8,1.5-0.8H188Z" transform="translate(-15.9 -2459.1)" style="fill: #b67b3a"/>
    <path d="M138.1,2582.1h-7.3c-0.6,0-1.5.1-1.5-.7s0.9-.8,1.5-0.8h15c0.6,0,1.3,0,1.3.8s-0.8.8-1.3,0.8h-7.7Z" transform="translate(-15.9 -2459.1)" style="fill: #b67b3a"/>
  </g>
</svg>
